<svg width="661" height="191" viewBox="0 0 661 191" fill="none" xmlns="http://www.w3.org/2000/svg">
<g filter="url(#filter0_d)">
<rect x="4" y="1" width="142" height="181" rx="10" fill="white"/>
<rect x="5.5" y="2.5" width="139" height="178" rx="8.5" stroke="url(#paint0_radial)" stroke-width="3" stroke-linejoin="round"/>
</g>
<path d="M41.752 34.76V77H32.92V44.744L23.768 50.632L19.736 44.04L33.688 34.76H41.752ZM56.4445 39.24C59.2178 35.7413 63.3138 33.992 68.7325 33.992C74.1512 33.992 78.2258 35.7413 80.9565 39.24C83.7298 42.7387 85.1165 48.3707 85.1165 56.136C85.1165 63.8587 83.7512 69.4053 81.0205 72.776C78.2898 76.104 74.1938 77.768 68.7325 77.768C63.2712 77.768 59.1752 76.104 56.4445 72.776C53.7138 69.4053 52.3485 63.8587 52.3485 56.136C52.3485 48.3707 53.7138 42.7387 56.4445 39.24ZM76.0285 55.944C76.0285 50.6533 75.4738 46.9627 74.3645 44.872C73.2552 42.7387 71.3778 41.672 68.7325 41.672C66.1298 41.672 64.2525 42.7387 63.1005 44.872C61.9912 47.0053 61.4365 50.696 61.4365 55.944C61.4365 61.192 62.0125 64.8613 63.1645 66.952C64.3165 69.0427 66.1938 70.088 68.7965 70.088C71.3992 70.088 73.2552 69.0427 74.3645 66.952C75.4738 64.8613 76.0285 61.192 76.0285 55.944ZM91.361 33.48H108.449C112.972 33.48 116.364 34.3973 118.625 36.232C120.886 38.024 122.017 40.9467 122.017 45C122.017 47.432 121.654 49.3733 120.929 50.824C120.204 52.232 118.966 53.4907 117.217 54.6C119.137 55.4107 120.545 56.584 121.441 58.12C122.38 59.656 122.849 61.7893 122.849 64.52C122.849 68.744 121.612 71.88 119.137 73.928C116.662 75.976 113.185 77 108.705 77H91.361V33.48ZM108.257 58.824H100.193V69.448H108.257C110.177 69.448 111.585 69.064 112.481 68.296C113.42 67.528 113.889 66.12 113.889 64.072C113.889 60.5733 112.012 58.824 108.257 58.824ZM108.001 41.032H100.193V51.4H108.065C111.393 51.4 113.057 49.672 113.057 46.216C113.057 42.76 111.372 41.032 108.001 41.032Z" fill="url(#paint1_linear)"/>
<path d="M33.036 102.48H36.774C37.7633 102.48 38.5053 102.681 39 103.082C39.4947 103.474 39.742 104.113 39.742 105C39.742 105.532 39.6627 105.957 39.504 106.274C39.3453 106.582 39.0747 106.857 38.692 107.1C39.112 107.277 39.42 107.534 39.616 107.87C39.8213 108.206 39.924 108.673 39.924 109.27C39.924 110.194 39.6533 110.88 39.112 111.328C38.5707 111.776 37.81 112 36.83 112H33.036V102.48ZM36.732 108.024H34.968V110.348H36.732C37.152 110.348 37.46 110.264 37.656 110.096C37.8613 109.928 37.964 109.62 37.964 109.172C37.964 108.407 37.5533 108.024 36.732 108.024ZM36.676 104.132H34.968V106.4H36.69C37.418 106.4 37.782 106.022 37.782 105.266C37.782 104.51 37.4133 104.132 36.676 104.132ZM45.5293 105H47.4053V112H45.5433V111.608C44.8713 111.981 44.2879 112.168 43.7933 112.168C42.8226 112.168 42.1693 111.902 41.8333 111.37C41.4973 110.829 41.3293 109.928 41.3293 108.668V105H43.2053V108.696C43.2053 109.387 43.2613 109.858 43.3733 110.11C43.4853 110.362 43.7559 110.488 44.1853 110.488C44.5959 110.488 44.9833 110.423 45.3473 110.292L45.5293 110.236V105ZM54.1635 106.75C53.0062 106.601 52.1942 106.526 51.7275 106.526C51.2702 106.526 50.9715 106.568 50.8315 106.652C50.7009 106.736 50.6355 106.871 50.6355 107.058C50.6355 107.235 50.7242 107.361 50.9015 107.436C51.0882 107.501 51.5549 107.604 52.3015 107.744C53.0575 107.875 53.5942 108.094 53.9115 108.402C54.2289 108.71 54.3875 109.209 54.3875 109.9C54.3875 111.412 53.4495 112.168 51.5735 112.168C50.9575 112.168 50.2109 112.084 49.3335 111.916L48.8855 111.832L48.9415 110.264C50.0989 110.413 50.9015 110.488 51.3495 110.488C51.8069 110.488 52.1149 110.446 52.2735 110.362C52.4415 110.269 52.5255 110.133 52.5255 109.956C52.5255 109.779 52.4369 109.648 52.2595 109.564C52.0915 109.48 51.6435 109.377 50.9155 109.256C50.1969 109.135 49.6602 108.929 49.3055 108.64C48.9509 108.351 48.7735 107.837 48.7735 107.1C48.7735 106.353 49.0255 105.793 49.5295 105.42C50.0335 105.037 50.6822 104.846 51.4755 104.846C52.0262 104.846 52.7775 104.935 53.7295 105.112L54.1915 105.196L54.1635 106.75ZM55.741 112V105H57.617V112H55.741ZM55.741 104.104V102.2H57.617V104.104H55.741ZM61.2264 112H59.3504V105H61.2124V105.392C61.8471 105.019 62.4304 104.832 62.9624 104.832C63.8958 104.832 64.5398 105.107 64.8944 105.658C65.2491 106.209 65.4264 107.058 65.4264 108.206V112H63.5504V108.262C63.5504 107.665 63.4804 107.226 63.3404 106.946C63.2004 106.657 62.9204 106.512 62.5004 106.512C62.1178 106.512 61.7491 106.577 61.3944 106.708L61.2264 106.764V112ZM68.6287 109.298C68.638 109.727 68.75 110.04 68.9647 110.236C69.1887 110.423 69.506 110.516 69.9167 110.516C70.7847 110.516 71.5594 110.488 72.2407 110.432L72.6327 110.39L72.6607 111.776C71.5874 112.037 70.6167 112.168 69.7487 112.168C68.694 112.168 67.9287 111.888 67.4527 111.328C66.9767 110.768 66.7387 109.858 66.7387 108.598C66.7387 106.087 67.77 104.832 69.8327 104.832C71.8674 104.832 72.8847 105.887 72.8847 107.996L72.7447 109.298H68.6287ZM71.0367 107.87C71.0367 107.31 70.948 106.923 70.7707 106.708C70.5934 106.484 70.2807 106.372 69.8327 106.372C69.394 106.372 69.0814 106.489 68.8947 106.722C68.7174 106.946 68.624 107.329 68.6147 107.87H71.0367ZM79.2514 106.75C78.0941 106.601 77.2821 106.526 76.8154 106.526C76.3581 106.526 76.0594 106.568 75.9194 106.652C75.7888 106.736 75.7234 106.871 75.7234 107.058C75.7234 107.235 75.8121 107.361 75.9894 107.436C76.1761 107.501 76.6428 107.604 77.3894 107.744C78.1454 107.875 78.6821 108.094 78.9994 108.402C79.3168 108.71 79.4754 109.209 79.4754 109.9C79.4754 111.412 78.5374 112.168 76.6614 112.168C76.0454 112.168 75.2988 112.084 74.4214 111.916L73.9734 111.832L74.0294 110.264C75.1868 110.413 75.9894 110.488 76.4374 110.488C76.8948 110.488 77.2028 110.446 77.3614 110.362C77.5294 110.269 77.6134 110.133 77.6134 109.956C77.6134 109.779 77.5248 109.648 77.3474 109.564C77.1794 109.48 76.7314 109.377 76.0034 109.256C75.2848 109.135 74.7481 108.929 74.3934 108.64C74.0388 108.351 73.8614 107.837 73.8614 107.1C73.8614 106.353 74.1134 105.793 74.6174 105.42C75.1214 105.037 75.7701 104.846 76.5634 104.846C77.1141 104.846 77.8654 104.935 78.8174 105.112L79.2794 105.196L79.2514 106.75ZM85.8549 106.75C84.6976 106.601 83.8856 106.526 83.4189 106.526C82.9616 106.526 82.6629 106.568 82.5229 106.652C82.3923 106.736 82.3269 106.871 82.3269 107.058C82.3269 107.235 82.4156 107.361 82.5929 107.436C82.7796 107.501 83.2463 107.604 83.9929 107.744C84.7489 107.875 85.2856 108.094 85.6029 108.402C85.9203 108.71 86.0789 109.209 86.0789 109.9C86.0789 111.412 85.1409 112.168 83.2649 112.168C82.6489 112.168 81.9023 112.084 81.0249 111.916L80.5769 111.832L80.6329 110.264C81.7903 110.413 82.5929 110.488 83.0409 110.488C83.4983 110.488 83.8063 110.446 83.9649 110.362C84.1329 110.269 84.2169 110.133 84.2169 109.956C84.2169 109.779 84.1283 109.648 83.9509 109.564C83.7829 109.48 83.3349 109.377 82.6069 109.256C81.8883 109.135 81.3516 108.929 80.9969 108.64C80.6423 108.351 80.4649 107.837 80.4649 107.1C80.4649 106.353 80.7169 105.793 81.2209 105.42C81.7249 105.037 82.3736 104.846 83.1669 104.846C83.7176 104.846 84.4689 104.935 85.4209 105.112L85.8829 105.196L85.8549 106.75ZM93.1266 104.832C93.612 104.832 94.2326 104.907 94.9886 105.056L95.3666 105.14L95.3106 106.624C94.5733 106.549 94.0273 106.512 93.6726 106.512C93.0286 106.512 92.5993 106.652 92.3846 106.932C92.1793 107.203 92.0766 107.721 92.0766 108.486C92.0766 109.251 92.1793 109.779 92.3846 110.068C92.5993 110.348 93.0333 110.488 93.6866 110.488L95.3106 110.376L95.3666 111.874C94.368 112.07 93.6073 112.168 93.0846 112.168C92.0486 112.168 91.302 111.879 90.8446 111.3C90.3966 110.712 90.1726 109.774 90.1726 108.486C90.1726 107.198 90.406 106.269 90.8726 105.7C91.3393 105.121 92.0906 104.832 93.1266 104.832ZM102.119 107.184V110.096C102.137 110.32 102.175 110.479 102.231 110.572C102.287 110.656 102.403 110.717 102.581 110.754L102.525 112.168C102.049 112.168 101.666 112.135 101.377 112.07C101.097 112.005 100.812 111.874 100.523 111.678C99.8507 112.005 99.1647 112.168 98.4647 112.168C97.018 112.168 96.2947 111.403 96.2947 109.872C96.2947 109.125 96.4953 108.598 96.8967 108.29C97.298 107.973 97.914 107.786 98.7447 107.73L100.243 107.618V107.184C100.243 106.895 100.177 106.699 100.047 106.596C99.916 106.484 99.706 106.428 99.4167 106.428L96.7847 106.54L96.7287 105.238C97.7273 104.967 98.6747 104.832 99.5707 104.832C100.476 104.832 101.125 105.019 101.517 105.392C101.918 105.765 102.119 106.363 102.119 107.184ZM98.9687 109.032C98.446 109.079 98.1847 109.359 98.1847 109.872C98.1847 110.385 98.4133 110.642 98.8707 110.642C99.2253 110.642 99.6127 110.586 100.033 110.474L100.243 110.418V108.92L98.9687 109.032ZM103.907 112V105H105.769V105.742C106.553 105.275 107.3 104.972 108.009 104.832V106.722C107.253 106.881 106.604 107.044 106.063 107.212L105.783 107.31V112H103.907ZM115.066 102.2V112H113.204V111.706C112.551 112.014 111.986 112.168 111.51 112.168C110.493 112.168 109.783 111.874 109.382 111.286C108.981 110.698 108.78 109.769 108.78 108.5C108.78 107.221 109.018 106.293 109.494 105.714C109.979 105.126 110.707 104.832 111.678 104.832C111.977 104.832 112.392 104.879 112.924 104.972L113.19 105.028V102.2H115.066ZM112.994 110.32L113.19 110.278V106.596C112.677 106.503 112.219 106.456 111.818 106.456C111.062 106.456 110.684 107.128 110.684 108.472C110.684 109.2 110.768 109.718 110.936 110.026C111.104 110.334 111.379 110.488 111.762 110.488C112.154 110.488 112.565 110.432 112.994 110.32ZM121.826 106.75C120.668 106.601 119.856 106.526 119.39 106.526C118.932 106.526 118.634 106.568 118.494 106.652C118.363 106.736 118.298 106.871 118.298 107.058C118.298 107.235 118.386 107.361 118.564 107.436C118.75 107.501 119.217 107.604 119.964 107.744C120.72 107.875 121.256 108.094 121.574 108.402C121.891 108.71 122.05 109.209 122.05 109.9C122.05 111.412 121.112 112.168 119.236 112.168C118.62 112.168 117.873 112.084 116.996 111.916L116.548 111.832L116.604 110.264C117.761 110.413 118.564 110.488 119.012 110.488C119.469 110.488 119.777 110.446 119.936 110.362C120.104 110.269 120.188 110.133 120.188 109.956C120.188 109.779 120.099 109.648 119.922 109.564C119.754 109.48 119.306 109.377 118.578 109.256C117.859 109.135 117.322 108.929 116.968 108.64C116.613 108.351 116.436 107.837 116.436 107.1C116.436 106.353 116.688 105.793 117.192 105.42C117.696 105.037 118.344 104.846 119.138 104.846C119.688 104.846 120.44 104.935 121.392 105.112L121.854 105.196L121.826 106.75ZM38.23 128.184V131.096C38.2487 131.32 38.286 131.479 38.342 131.572C38.398 131.656 38.5147 131.717 38.692 131.754L38.636 133.168C38.16 133.168 37.7773 133.135 37.488 133.07C37.208 133.005 36.9233 132.874 36.634 132.678C35.962 133.005 35.276 133.168 34.576 133.168C33.1293 133.168 32.406 132.403 32.406 130.872C32.406 130.125 32.6067 129.598 33.008 129.29C33.4093 128.973 34.0253 128.786 34.856 128.73L36.354 128.618V128.184C36.354 127.895 36.2887 127.699 36.158 127.596C36.0273 127.484 35.8173 127.428 35.528 127.428L32.896 127.54L32.84 126.238C33.8387 125.967 34.786 125.832 35.682 125.832C36.5873 125.832 37.236 126.019 37.628 126.392C38.0293 126.765 38.23 127.363 38.23 128.184ZM35.08 130.032C34.5573 130.079 34.296 130.359 34.296 130.872C34.296 131.385 34.5247 131.642 34.982 131.642C35.3367 131.642 35.724 131.586 36.144 131.474L36.354 131.418V129.92L35.08 130.032ZM40.0184 133V126H41.8804V126.742C42.6644 126.275 43.4111 125.972 44.1204 125.832V127.722C43.3644 127.881 42.7157 128.044 42.1744 128.212L41.8944 128.31V133H40.0184ZM46.7674 130.298C46.7767 130.727 46.8887 131.04 47.1034 131.236C47.3274 131.423 47.6447 131.516 48.0554 131.516C48.9234 131.516 49.698 131.488 50.3794 131.432L50.7714 131.39L50.7994 132.776C49.726 133.037 48.7554 133.168 47.8874 133.168C46.8327 133.168 46.0674 132.888 45.5914 132.328C45.1154 131.768 44.8774 130.858 44.8774 129.598C44.8774 127.087 45.9087 125.832 47.9714 125.832C50.006 125.832 51.0234 126.887 51.0234 128.996L50.8834 130.298H46.7674ZM49.1754 128.87C49.1754 128.31 49.0867 127.923 48.9094 127.708C48.732 127.484 48.4194 127.372 47.9714 127.372C47.5327 127.372 47.22 127.489 47.0334 127.722C46.856 127.946 46.7627 128.329 46.7534 128.87H49.1754ZM55.4403 135.94V126H57.3023V126.378C57.9089 126.014 58.4409 125.832 58.8983 125.832C59.8409 125.832 60.5363 126.117 60.9843 126.686C61.4323 127.246 61.6563 128.203 61.6563 129.556C61.6563 130.909 61.4089 131.852 60.9143 132.384C60.4196 132.907 59.6076 133.168 58.4783 133.168C58.1703 133.168 57.8389 133.14 57.4843 133.084L57.3163 133.056V135.94H55.4403ZM58.5343 127.512C58.1889 127.512 57.8389 127.582 57.4843 127.722L57.3163 127.792V131.46C57.7363 131.516 58.0769 131.544 58.3383 131.544C58.8796 131.544 59.2483 131.385 59.4443 131.068C59.6496 130.751 59.7523 130.209 59.7523 129.444C59.7523 128.156 59.3463 127.512 58.5343 127.512ZM63.0555 133V126H64.9175V126.742C65.7015 126.275 66.4482 125.972 67.1575 125.832V127.722C66.4015 127.881 65.7528 128.044 65.2115 128.212L64.9315 128.31V133H63.0555ZM68.2645 133V126H70.1405V133H68.2645ZM68.2645 125.104V123.2H70.1405V125.104H68.2645ZM73.7499 133H71.8739V126H73.7359V126.392C74.3705 126.019 74.9539 125.832 75.4859 125.832C76.4192 125.832 77.0632 126.107 77.4179 126.658C77.7725 127.209 77.9499 128.058 77.9499 129.206V133H76.0739V129.262C76.0739 128.665 76.0039 128.226 75.8639 127.946C75.7239 127.657 75.4439 127.512 75.0239 127.512C74.6412 127.512 74.2725 127.577 73.9179 127.708L73.7499 127.764V133ZM83.4901 127.596H81.7681V130.466C81.7681 130.746 81.7728 130.947 81.7821 131.068C81.8008 131.18 81.8521 131.278 81.9361 131.362C82.0295 131.446 82.1695 131.488 82.3561 131.488L83.4201 131.46L83.5041 132.958C82.8788 133.098 82.4028 133.168 82.0761 133.168C81.2361 133.168 80.6621 132.981 80.3541 132.608C80.0461 132.225 79.8921 131.525 79.8921 130.508V127.596H79.0661V126H79.8921V124.054H81.7681V126H83.4901V127.596ZM86.2518 130.298C86.2611 130.727 86.3731 131.04 86.5878 131.236C86.8118 131.423 87.1291 131.516 87.5397 131.516C88.4078 131.516 89.1824 131.488 89.8638 131.432L90.2558 131.39L90.2838 132.776C89.2104 133.037 88.2398 133.168 87.3718 133.168C86.3171 133.168 85.5518 132.888 85.0758 132.328C84.5998 131.768 84.3618 130.858 84.3618 129.598C84.3618 127.087 85.3931 125.832 87.4558 125.832C89.4904 125.832 90.5078 126.887 90.5078 128.996L90.3678 130.298H86.2518ZM88.6598 128.87C88.6598 128.31 88.5711 127.923 88.3938 127.708C88.2164 127.484 87.9038 127.372 87.4558 127.372C87.0171 127.372 86.7044 127.489 86.5178 127.722C86.3404 127.946 86.2471 128.329 86.2378 128.87H88.6598ZM97.7985 123.2V133H95.9365V132.706C95.2831 133.014 94.7185 133.168 94.2425 133.168C93.2251 133.168 92.5158 132.874 92.1145 132.286C91.7131 131.698 91.5125 130.769 91.5125 129.5C91.5125 128.221 91.7505 127.293 92.2265 126.714C92.7118 126.126 93.4398 125.832 94.4105 125.832C94.7091 125.832 95.1245 125.879 95.6565 125.972L95.9225 126.028V123.2H97.7985ZM95.7265 131.32L95.9225 131.278V127.596C95.4091 127.503 94.9518 127.456 94.5505 127.456C93.7945 127.456 93.4165 128.128 93.4165 129.472C93.4165 130.2 93.5005 130.718 93.6685 131.026C93.8365 131.334 94.1118 131.488 94.4945 131.488C94.8865 131.488 95.2971 131.432 95.7265 131.32ZM38.23 149.184V152.096C38.2487 152.32 38.286 152.479 38.342 152.572C38.398 152.656 38.5147 152.717 38.692 152.754L38.636 154.168C38.16 154.168 37.7773 154.135 37.488 154.07C37.208 154.005 36.9233 153.874 36.634 153.678C35.962 154.005 35.276 154.168 34.576 154.168C33.1293 154.168 32.406 153.403 32.406 151.872C32.406 151.125 32.6067 150.598 33.008 150.29C33.4093 149.973 34.0253 149.786 34.856 149.73L36.354 149.618V149.184C36.354 148.895 36.2887 148.699 36.158 148.596C36.0273 148.484 35.8173 148.428 35.528 148.428L32.896 148.54L32.84 147.238C33.8387 146.967 34.786 146.832 35.682 146.832C36.5873 146.832 37.236 147.019 37.628 147.392C38.0293 147.765 38.23 148.363 38.23 149.184ZM35.08 151.032C34.5573 151.079 34.296 151.359 34.296 151.872C34.296 152.385 34.5247 152.642 34.982 152.642C35.3367 152.642 35.724 152.586 36.144 152.474L36.354 152.418V150.92L35.08 151.032ZM41.8944 154H40.0184V147H41.8804V147.392C42.5151 147.019 43.0984 146.832 43.6304 146.832C44.5637 146.832 45.2077 147.107 45.5624 147.658C45.9171 148.209 46.0944 149.058 46.0944 150.206V154H44.2184V150.262C44.2184 149.665 44.1484 149.226 44.0084 148.946C43.8684 148.657 43.5884 148.512 43.1684 148.512C42.7857 148.512 42.4171 148.577 42.0624 148.708L41.8944 148.764V154ZM49.6327 154H47.7567V147H49.6187V147.392C50.2533 147.019 50.8367 146.832 51.3687 146.832C52.302 146.832 52.946 147.107 53.3007 147.658C53.6553 148.209 53.8327 149.058 53.8327 150.206V154H51.9567V150.262C51.9567 149.665 51.8867 149.226 51.7467 148.946C51.6067 148.657 51.3267 148.512 50.9067 148.512C50.524 148.512 50.1553 148.577 49.8007 148.708L49.6327 148.764V154ZM59.625 147H61.501V154H59.639V153.608C58.967 153.981 58.3836 154.168 57.889 154.168C56.9183 154.168 56.265 153.902 55.929 153.37C55.593 152.829 55.425 151.928 55.425 150.668V147H57.301V150.696C57.301 151.387 57.357 151.858 57.469 152.11C57.581 152.362 57.8516 152.488 58.281 152.488C58.6916 152.488 59.079 152.423 59.443 152.292L59.625 152.236V147ZM68.5952 149.184V152.096C68.6139 152.32 68.6512 152.479 68.7072 152.572C68.7632 152.656 68.8799 152.717 69.0572 152.754L69.0012 154.168C68.5252 154.168 68.1426 154.135 67.8532 154.07C67.5732 154.005 67.2886 153.874 66.9992 153.678C66.3272 154.005 65.6412 154.168 64.9412 154.168C63.4946 154.168 62.7712 153.403 62.7712 151.872C62.7712 151.125 62.9719 150.598 63.3732 150.29C63.7746 149.973 64.3906 149.786 65.2212 149.73L66.7192 149.618V149.184C66.7192 148.895 66.6539 148.699 66.5232 148.596C66.3926 148.484 66.1826 148.428 65.8932 148.428L63.2612 148.54L63.2052 147.238C64.2039 146.967 65.1512 146.832 66.0472 146.832C66.9526 146.832 67.6012 147.019 67.9932 147.392C68.3946 147.765 68.5952 148.363 68.5952 149.184ZM65.4452 151.032C64.9226 151.079 64.6612 151.359 64.6612 151.872C64.6612 152.385 64.8899 152.642 65.3472 152.642C65.7019 152.642 66.0892 152.586 66.5092 152.474L66.7192 152.418V150.92L65.4452 151.032ZM70.4676 154V144.2H72.3436V154H70.4676ZM74.2411 154V144.2H76.1171V154H74.2411ZM77.2865 147H79.1345L80.4085 152.404H80.7305L82.0045 147H83.8525L81.3885 156.94H79.5545L80.3245 154H79.0085L77.2865 147Z" fill="#5F6FFF"/>
<g filter="url(#filter1_d)">
<rect x="514.286" y="1.22446" width="142" height="181" rx="10" fill="white"/>
<rect x="515.786" y="2.72446" width="139" height="178" rx="8.5" stroke="url(#paint2_radial)" stroke-width="3" stroke-linejoin="round"/>
</g>
<path d="M534.968 36.296C538.893 34.76 543.267 33.992 548.088 33.992C552.952 33.992 556.493 34.9307 558.712 36.808C560.931 38.6427 562.04 41.608 562.04 45.704C562.04 49.8 560.397 52.936 557.112 55.112C559.16 56.2213 560.611 57.3733 561.464 58.568C562.36 59.7627 562.808 61.6613 562.808 64.264C562.808 68.8293 561.656 72.2213 559.352 74.44C557.091 76.6587 553.443 77.768 548.408 77.768C544.696 77.768 540.792 77.2133 536.696 76.104L534.648 75.592L535.096 68.872C539.875 69.6827 543.885 70.088 547.128 70.088C551.523 70.088 553.72 68.2107 553.72 64.456C553.72 62.8773 553.144 61.6187 551.992 60.68C550.883 59.7413 549.411 59.272 547.576 59.272H539.064V51.976H547.576C548.984 51.976 550.221 51.3787 551.288 50.184C552.397 48.9893 552.952 47.6667 552.952 46.216C552.952 43.1867 550.84 41.672 546.616 41.672C543.672 41.672 540.536 41.9707 537.208 42.568L535.544 42.824L534.968 36.296ZM598.173 34.76V42.44H579.293L578.205 51.592C580.85 50.568 583.367 50.056 585.757 50.056C594.887 50.056 599.453 54.3013 599.453 62.792C599.453 67.5707 598.194 71.2613 595.677 73.864C593.159 76.4667 589.597 77.768 584.989 77.768C583.026 77.768 580.786 77.576 578.269 77.192C575.794 76.808 573.81 76.4027 572.317 75.976L570.013 75.4L570.973 68.872C576.135 69.6827 580.445 70.088 583.901 70.088C585.991 70.088 587.591 69.5333 588.701 68.424C589.81 67.3147 590.365 65.736 590.365 63.688C590.365 61.5973 589.895 60.0827 588.957 59.144C588.018 58.2053 586.695 57.736 584.989 57.736C582.13 57.736 579.613 58.0133 577.437 58.568L576.477 58.824L571.229 57.608L572.381 34.76H598.173ZM610.625 77.512L625.665 32.264L630.337 33.928L615.297 79.048L610.625 77.512ZM603.521 43.336C603.521 37.1067 606.081 33.992 611.201 33.992C616.321 33.992 618.881 37.1067 618.881 43.336C618.881 49.5227 616.321 52.616 611.201 52.616C606.081 52.616 603.521 49.5227 603.521 43.336ZM610.049 40.072C609.878 40.6693 609.793 41.736 609.793 43.272C609.793 44.808 609.878 45.896 610.049 46.536C610.262 47.176 610.646 47.496 611.201 47.496C611.756 47.496 612.118 47.176 612.289 46.536C612.502 45.896 612.609 44.808 612.609 43.272C612.609 41.736 612.502 40.6693 612.289 40.072C612.118 39.432 611.756 39.112 611.201 39.112C610.646 39.112 610.262 39.432 610.049 40.072ZM622.209 68.488C622.209 62.2587 624.769 59.144 629.889 59.144C635.009 59.144 637.569 62.2587 637.569 68.488C637.569 74.6747 635.009 77.768 629.889 77.768C624.769 77.768 622.209 74.6747 622.209 68.488ZM628.737 65.224C628.566 65.8213 628.481 66.888 628.481 68.424C628.481 69.96 628.566 71.048 628.737 71.688C628.95 72.328 629.334 72.648 629.889 72.648C630.444 72.648 630.806 72.328 630.977 71.688C631.19 71.048 631.297 69.96 631.297 68.424C631.297 66.888 631.19 65.8213 630.977 65.224C630.806 64.584 630.444 64.264 629.889 64.264C629.334 64.264 628.95 64.584 628.737 65.224Z" fill="url(#paint3_linear)"/>
<path d="M551.962 92.992C550.945 92.992 550.436 93.328 550.436 94C550.436 94.2987 550.562 94.5273 550.814 94.686C551.066 94.8447 551.654 95.0733 552.578 95.372C553.511 95.6707 554.165 96.0113 554.538 96.394C554.911 96.7673 555.098 97.346 555.098 98.13C555.098 99.1287 554.795 99.8847 554.188 100.398C553.581 100.911 552.788 101.168 551.808 101.168C551.08 101.168 550.189 101.056 549.134 100.832L548.63 100.734L548.826 99.236C550.077 99.404 551.033 99.488 551.696 99.488C552.685 99.488 553.18 99.0773 553.18 98.256C553.18 97.9573 553.063 97.724 552.83 97.556C552.606 97.388 552.153 97.206 551.472 97.01C550.389 96.702 549.624 96.338 549.176 95.918C548.737 95.4887 548.518 94.896 548.518 94.14C548.518 93.188 548.807 92.4787 549.386 92.012C549.965 91.5453 550.758 91.312 551.766 91.312C552.457 91.312 553.334 91.4053 554.398 91.592L554.902 91.69L554.748 93.216C553.432 93.0667 552.503 92.992 551.962 92.992ZM560.293 95.596H558.571V98.466C558.571 98.746 558.576 98.9467 558.585 99.068C558.604 99.18 558.655 99.278 558.739 99.362C558.832 99.446 558.972 99.488 559.159 99.488L560.223 99.46L560.307 100.958C559.682 101.098 559.206 101.168 558.879 101.168C558.039 101.168 557.465 100.981 557.157 100.608C556.849 100.225 556.695 99.5253 556.695 98.508V95.596H555.869V94H556.695V92.054H558.571V94H560.293V95.596ZM561.892 94.798C562.387 94.154 563.213 93.832 564.37 93.832C565.528 93.832 566.354 94.154 566.848 94.798C567.343 95.4327 567.59 96.3287 567.59 97.486C567.59 99.9407 566.517 101.168 564.37 101.168C562.224 101.168 561.15 99.9407 561.15 97.486C561.15 96.3287 561.398 95.4327 561.892 94.798ZM563.334 99.068C563.53 99.404 563.876 99.572 564.37 99.572C564.865 99.572 565.206 99.404 565.392 99.068C565.588 98.732 565.686 98.2047 565.686 97.486C565.686 96.7673 565.588 96.2447 565.392 95.918C565.206 95.5913 564.865 95.428 564.37 95.428C563.876 95.428 563.53 95.5913 563.334 95.918C563.148 96.2447 563.054 96.7673 563.054 97.486C563.054 98.2047 563.148 98.732 563.334 99.068ZM568.966 101V94H570.828V94.742C571.612 94.2753 572.358 93.972 573.068 93.832V95.722C572.312 95.8807 571.663 96.044 571.122 96.212L570.842 96.31V101H568.966ZM575.715 98.298C575.724 98.7273 575.836 99.04 576.051 99.236C576.275 99.4227 576.592 99.516 577.003 99.516C577.871 99.516 578.645 99.488 579.327 99.432L579.719 99.39L579.747 100.776C578.673 101.037 577.703 101.168 576.835 101.168C575.78 101.168 575.015 100.888 574.539 100.328C574.063 99.768 573.825 98.858 573.825 97.598C573.825 95.0873 574.856 93.832 576.919 93.832C578.953 93.832 579.971 94.8867 579.971 96.996L579.831 98.298H575.715ZM578.123 96.87C578.123 96.31 578.034 95.9227 577.857 95.708C577.679 95.484 577.367 95.372 576.919 95.372C576.48 95.372 576.167 95.4887 575.981 95.722C575.803 95.946 575.71 96.3287 575.701 96.87H578.123ZM588.266 95.596H586.544V98.466C586.544 98.746 586.548 98.9467 586.558 99.068C586.576 99.18 586.628 99.278 586.712 99.362C586.805 99.446 586.945 99.488 587.132 99.488L588.196 99.46L588.28 100.958C587.654 101.098 587.178 101.168 586.852 101.168C586.012 101.168 585.438 100.981 585.13 100.608C584.822 100.225 584.668 99.5253 584.668 98.508V95.596H583.842V94H584.668V92.054H586.544V94H588.266V95.596ZM591.363 101H589.487V91.2H591.363V94.336C592.007 94 592.586 93.832 593.099 93.832C594.032 93.832 594.676 94.1073 595.031 94.658C595.386 95.2087 595.563 96.058 595.563 97.206V101H593.687V97.248C593.687 96.66 593.617 96.226 593.477 95.946C593.337 95.6567 593.057 95.512 592.637 95.512C592.273 95.512 591.909 95.568 591.545 95.68L591.363 95.736V101ZM598.765 98.298C598.775 98.7273 598.887 99.04 599.101 99.236C599.325 99.4227 599.643 99.516 600.053 99.516C600.921 99.516 601.696 99.488 602.377 99.432L602.769 99.39L602.797 100.776C601.724 101.037 600.753 101.168 599.885 101.168C598.831 101.168 598.065 100.888 597.589 100.328C597.113 99.768 596.875 98.858 596.875 97.598C596.875 95.0873 597.907 93.832 599.969 93.832C602.004 93.832 603.021 94.8867 603.021 96.996L602.881 98.298H598.765ZM601.173 96.87C601.173 96.31 601.085 95.9227 600.907 95.708C600.73 95.484 600.417 95.372 599.969 95.372C599.531 95.372 599.218 95.4887 599.031 95.722C598.854 95.946 598.761 96.3287 598.751 96.87H601.173ZM604.362 101V94H606.238V101H604.362ZM604.362 93.104V91.2H606.238V93.104H604.362ZM607.972 101V94H609.834V94.742C610.618 94.2753 611.364 93.972 612.074 93.832V95.722C611.318 95.8807 610.669 96.044 610.128 96.212L609.848 96.31V101H607.972ZM551.486 114.832C551.971 114.832 552.592 114.907 553.348 115.056L553.726 115.14L553.67 116.624C552.933 116.549 552.387 116.512 552.032 116.512C551.388 116.512 550.959 116.652 550.744 116.932C550.539 117.203 550.436 117.721 550.436 118.486C550.436 119.251 550.539 119.779 550.744 120.068C550.959 120.348 551.393 120.488 552.046 120.488L553.67 120.376L553.726 121.874C552.727 122.07 551.967 122.168 551.444 122.168C550.408 122.168 549.661 121.879 549.204 121.3C548.756 120.712 548.532 119.774 548.532 118.486C548.532 117.198 548.765 116.269 549.232 115.7C549.699 115.121 550.45 114.832 551.486 114.832ZM555.439 115.798C555.934 115.154 556.76 114.832 557.917 114.832C559.075 114.832 559.901 115.154 560.395 115.798C560.89 116.433 561.137 117.329 561.137 118.486C561.137 120.941 560.064 122.168 557.917 122.168C555.771 122.168 554.697 120.941 554.697 118.486C554.697 117.329 554.945 116.433 555.439 115.798ZM556.881 120.068C557.077 120.404 557.423 120.572 557.917 120.572C558.412 120.572 558.753 120.404 558.939 120.068C559.135 119.732 559.233 119.205 559.233 118.486C559.233 117.767 559.135 117.245 558.939 116.918C558.753 116.591 558.412 116.428 557.917 116.428C557.423 116.428 557.077 116.591 556.881 116.918C556.695 117.245 556.601 117.767 556.601 118.486C556.601 119.205 556.695 119.732 556.881 120.068ZM564.389 122H562.513V115H564.375V115.392C565.009 115.019 565.593 114.832 566.125 114.832C567.058 114.832 567.702 115.107 568.057 115.658C568.411 116.209 568.589 117.058 568.589 118.206V122H566.713V118.262C566.713 117.665 566.643 117.226 566.503 116.946C566.363 116.657 566.083 116.512 565.663 116.512C565.28 116.512 564.911 116.577 564.557 116.708L564.389 116.764V122ZM574.129 116.596H572.407V119.466C572.407 119.746 572.411 119.947 572.421 120.068C572.439 120.18 572.491 120.278 572.575 120.362C572.668 120.446 572.808 120.488 572.995 120.488L574.059 120.46L574.143 121.958C573.517 122.098 573.041 122.168 572.715 122.168C571.875 122.168 571.301 121.981 570.993 121.608C570.685 121.225 570.531 120.525 570.531 119.508V116.596H569.705V115H570.531V113.054H572.407V115H574.129V116.596ZM580.712 117.184V120.096C580.731 120.32 580.768 120.479 580.824 120.572C580.88 120.656 580.997 120.717 581.174 120.754L581.118 122.168C580.642 122.168 580.26 122.135 579.97 122.07C579.69 122.005 579.406 121.874 579.116 121.678C578.444 122.005 577.758 122.168 577.058 122.168C575.612 122.168 574.888 121.403 574.888 119.872C574.888 119.125 575.089 118.598 575.49 118.29C575.892 117.973 576.508 117.786 577.338 117.73L578.836 117.618V117.184C578.836 116.895 578.771 116.699 578.64 116.596C578.51 116.484 578.3 116.428 578.01 116.428L575.378 116.54L575.322 115.238C576.321 114.967 577.268 114.832 578.164 114.832C579.07 114.832 579.718 115.019 580.11 115.392C580.512 115.765 580.712 116.363 580.712 117.184ZM577.562 119.032C577.04 119.079 576.778 119.359 576.778 119.872C576.778 120.385 577.007 120.642 577.464 120.642C577.819 120.642 578.206 120.586 578.626 120.474L578.836 120.418V118.92L577.562 119.032ZM585.119 114.832C585.604 114.832 586.225 114.907 586.981 115.056L587.359 115.14L587.303 116.624C586.565 116.549 586.019 116.512 585.665 116.512C585.021 116.512 584.591 116.652 584.377 116.932C584.171 117.203 584.069 117.721 584.069 118.486C584.069 119.251 584.171 119.779 584.377 120.068C584.591 120.348 585.025 120.488 585.679 120.488L587.303 120.376L587.359 121.874C586.36 122.07 585.599 122.168 585.077 122.168C584.041 122.168 583.294 121.879 582.837 121.3C582.389 120.712 582.165 119.774 582.165 118.486C582.165 117.198 582.398 116.269 582.865 115.7C583.331 115.121 584.083 114.832 585.119 114.832ZM592.627 116.596H590.905V119.466C590.905 119.746 590.91 119.947 590.919 120.068C590.938 120.18 590.989 120.278 591.073 120.362C591.166 120.446 591.306 120.488 591.493 120.488L592.557 120.46L592.641 121.958C592.016 122.098 591.54 122.168 591.213 122.168C590.373 122.168 589.799 121.981 589.491 121.608C589.183 121.225 589.029 120.525 589.029 119.508V116.596H588.203V115H589.029V113.054H590.905V115H592.627V116.596ZM598.874 116.75C597.717 116.601 596.905 116.526 596.438 116.526C595.981 116.526 595.682 116.568 595.542 116.652C595.412 116.736 595.346 116.871 595.346 117.058C595.346 117.235 595.435 117.361 595.612 117.436C595.799 117.501 596.266 117.604 597.012 117.744C597.768 117.875 598.305 118.094 598.622 118.402C598.94 118.71 599.098 119.209 599.098 119.9C599.098 121.412 598.16 122.168 596.284 122.168C595.668 122.168 594.922 122.084 594.044 121.916L593.596 121.832L593.652 120.264C594.81 120.413 595.612 120.488 596.06 120.488C596.518 120.488 596.826 120.446 596.984 120.362C597.152 120.269 597.236 120.133 597.236 119.956C597.236 119.779 597.148 119.648 596.97 119.564C596.802 119.48 596.354 119.377 595.626 119.256C594.908 119.135 594.371 118.929 594.016 118.64C593.662 118.351 593.484 117.837 593.484 117.1C593.484 116.353 593.736 115.793 594.24 115.42C594.744 115.037 595.393 114.846 596.186 114.846C596.737 114.846 597.488 114.935 598.44 115.112L598.902 115.196L598.874 116.75ZM553.698 133.494L553.026 136.952H551.066L552.256 133.494H553.698ZM551.122 133.494L550.45 136.952H548.49L549.68 133.494H551.122ZM559.964 137.75C558.807 137.601 557.995 137.526 557.528 137.526C557.071 137.526 556.772 137.568 556.632 137.652C556.502 137.736 556.436 137.871 556.436 138.058C556.436 138.235 556.525 138.361 556.702 138.436C556.889 138.501 557.356 138.604 558.102 138.744C558.858 138.875 559.395 139.094 559.712 139.402C560.03 139.71 560.188 140.209 560.188 140.9C560.188 142.412 559.25 143.168 557.374 143.168C556.758 143.168 556.012 143.084 555.134 142.916L554.686 142.832L554.742 141.264C555.9 141.413 556.702 141.488 557.15 141.488C557.608 141.488 557.916 141.446 558.074 141.362C558.242 141.269 558.326 141.133 558.326 140.956C558.326 140.779 558.238 140.648 558.06 140.564C557.892 140.48 557.444 140.377 556.716 140.256C555.998 140.135 555.461 139.929 555.106 139.64C554.752 139.351 554.574 138.837 554.574 138.1C554.574 137.353 554.826 136.793 555.33 136.42C555.834 136.037 556.483 135.846 557.276 135.846C557.827 135.846 558.578 135.935 559.53 136.112L559.992 136.196L559.964 137.75ZM561.92 136.798C562.414 136.154 563.24 135.832 564.398 135.832C565.555 135.832 566.381 136.154 566.876 136.798C567.37 137.433 567.618 138.329 567.618 139.486C567.618 141.941 566.544 143.168 564.398 143.168C562.251 143.168 561.178 141.941 561.178 139.486C561.178 138.329 561.425 137.433 561.92 136.798ZM563.362 141.068C563.558 141.404 563.903 141.572 564.398 141.572C564.892 141.572 565.233 141.404 565.42 141.068C565.616 140.732 565.714 140.205 565.714 139.486C565.714 138.767 565.616 138.245 565.42 137.918C565.233 137.591 564.892 137.428 564.398 137.428C563.903 137.428 563.558 137.591 563.362 137.918C563.175 138.245 563.082 138.767 563.082 139.486C563.082 140.205 563.175 140.732 563.362 141.068ZM570.869 143H568.993V136H570.855V136.392C571.499 136.019 572.05 135.832 572.507 135.832C573.263 135.832 573.846 136.051 574.257 136.49C575.116 136.051 575.9 135.832 576.609 135.832C577.533 135.832 578.172 136.103 578.527 136.644C578.891 137.176 579.073 138.03 579.073 139.206V143H577.197V139.262C577.197 138.665 577.132 138.226 577.001 137.946C576.87 137.657 576.609 137.512 576.217 137.512C575.918 137.512 575.554 137.577 575.125 137.708L574.915 137.778C574.952 138.478 574.971 139.01 574.971 139.374V143H573.095V139.402C573.095 138.711 573.034 138.226 572.913 137.946C572.792 137.657 572.526 137.512 572.115 137.512C571.751 137.512 571.392 137.577 571.037 137.708L570.869 137.764V143ZM582.277 140.298C582.286 140.727 582.398 141.04 582.613 141.236C582.837 141.423 583.154 141.516 583.565 141.516C584.433 141.516 585.208 141.488 585.889 141.432L586.281 141.39L586.309 142.776C585.236 143.037 584.265 143.168 583.397 143.168C582.342 143.168 581.577 142.888 581.101 142.328C580.625 141.768 580.387 140.858 580.387 139.598C580.387 137.087 581.418 135.832 583.481 135.832C585.516 135.832 586.533 136.887 586.533 138.996L586.393 140.298H582.277ZM584.685 138.87C584.685 138.31 584.596 137.923 584.419 137.708C584.242 137.484 583.929 137.372 583.481 137.372C583.042 137.372 582.73 137.489 582.543 137.722C582.366 137.946 582.272 138.329 582.263 138.87H584.685ZM587.342 136H589.19L590.044 141.404H590.38L591.444 136.14H593.376L594.44 141.404H594.776L595.63 136H597.478L596.148 143H593.208L592.41 138.716L591.612 143H588.672L587.342 136ZM600.564 143H598.688V133.2H600.564V136.336C601.208 136 601.787 135.832 602.3 135.832C603.234 135.832 603.878 136.107 604.232 136.658C604.587 137.209 604.764 138.058 604.764 139.206V143H602.888V139.248C602.888 138.66 602.818 138.226 602.678 137.946C602.538 137.657 602.258 137.512 601.838 137.512C601.474 137.512 601.11 137.568 600.746 137.68L600.564 137.736V143ZM607.967 140.298C607.976 140.727 608.088 141.04 608.303 141.236C608.527 141.423 608.844 141.516 609.255 141.516C610.123 141.516 610.897 141.488 611.579 141.432L611.971 141.39L611.999 142.776C610.925 143.037 609.955 143.168 609.087 143.168C608.032 143.168 607.267 142.888 606.791 142.328C606.315 141.768 606.077 140.858 606.077 139.598C606.077 137.087 607.108 135.832 609.171 135.832C611.205 135.832 612.223 136.887 612.223 138.996L612.083 140.298H607.967ZM610.375 138.87C610.375 138.31 610.286 137.923 610.109 137.708C609.931 137.484 609.619 137.372 609.171 137.372C608.732 137.372 608.419 137.489 608.233 137.722C608.055 137.946 607.962 138.329 607.953 138.87H610.375ZM613.563 143V136H615.425V136.742C616.209 136.275 616.956 135.972 617.665 135.832V137.722C616.909 137.881 616.261 138.044 615.719 138.212L615.439 138.31V143H613.563ZM620.312 140.298C620.322 140.727 620.434 141.04 620.648 141.236C620.872 141.423 621.19 141.516 621.6 141.516C622.468 141.516 623.243 141.488 623.924 141.432L624.316 141.39L624.344 142.776C623.271 143.037 622.3 143.168 621.432 143.168C620.378 143.168 619.612 142.888 619.136 142.328C618.66 141.768 618.422 140.858 618.422 139.598C618.422 137.087 619.454 135.832 621.516 135.832C623.551 135.832 624.568 136.887 624.568 138.996L624.428 140.298H620.312ZM622.72 138.87C622.72 138.31 622.632 137.923 622.454 137.708C622.277 137.484 621.964 137.372 621.516 137.372C621.078 137.372 620.765 137.489 620.578 137.722C620.401 137.946 620.308 138.329 620.298 138.87H622.72ZM628.985 143V136H630.861V143H628.985ZM628.985 135.104V133.2H630.861V135.104H628.985ZM634.471 143H632.595V136H634.457V136.392C635.091 136.019 635.675 135.832 636.207 135.832C637.14 135.832 637.784 136.107 638.139 136.658C638.493 137.209 638.671 138.058 638.671 139.206V143H636.795V139.262C636.795 138.665 636.725 138.226 636.585 137.946C636.445 137.657 636.165 137.512 635.745 137.512C635.362 137.512 634.993 137.577 634.639 137.708L634.471 137.764V143ZM552.746 158.596H551.024V161.466C551.024 161.746 551.029 161.947 551.038 162.068C551.057 162.18 551.108 162.278 551.192 162.362C551.285 162.446 551.425 162.488 551.612 162.488L552.676 162.46L552.76 163.958C552.135 164.098 551.659 164.168 551.332 164.168C550.492 164.168 549.918 163.981 549.61 163.608C549.302 163.225 549.148 162.525 549.148 161.508V158.596H548.322V157H549.148V155.054H551.024V157H552.746V158.596ZM555.844 164H553.968V154.2H555.844V157.336C556.488 157 557.066 156.832 557.58 156.832C558.513 156.832 559.157 157.107 559.512 157.658C559.866 158.209 560.044 159.058 560.044 160.206V164H558.168V160.248C558.168 159.66 558.098 159.226 557.958 158.946C557.818 158.657 557.538 158.512 557.118 158.512C556.754 158.512 556.39 158.568 556.026 158.68L555.844 158.736V164ZM563.246 161.298C563.255 161.727 563.367 162.04 563.582 162.236C563.806 162.423 564.123 162.516 564.534 162.516C565.402 162.516 566.177 162.488 566.858 162.432L567.25 162.39L567.278 163.776C566.205 164.037 565.234 164.168 564.366 164.168C563.311 164.168 562.546 163.888 562.07 163.328C561.594 162.768 561.356 161.858 561.356 160.598C561.356 158.087 562.387 156.832 564.45 156.832C566.485 156.832 567.502 157.887 567.502 159.996L567.362 161.298H563.246ZM565.654 159.87C565.654 159.31 565.565 158.923 565.388 158.708C565.211 158.484 564.898 158.372 564.45 158.372C564.011 158.372 563.699 158.489 563.512 158.722C563.335 158.946 563.241 159.329 563.232 159.87H565.654ZM568.843 164V157H570.719V164H568.843ZM568.843 156.104V154.2H570.719V156.104H568.843ZM572.452 164V157H574.314V157.742C575.098 157.275 575.845 156.972 576.554 156.832V158.722C575.798 158.881 575.149 159.044 574.608 159.212L574.328 159.31V164H572.452ZM580.737 166.94V157H582.599V157.378C583.206 157.014 583.738 156.832 584.195 156.832C585.138 156.832 585.833 157.117 586.281 157.686C586.729 158.246 586.953 159.203 586.953 160.556C586.953 161.909 586.706 162.852 586.211 163.384C585.716 163.907 584.904 164.168 583.775 164.168C583.467 164.168 583.136 164.14 582.781 164.084L582.613 164.056V166.94H580.737ZM583.831 158.512C583.486 158.512 583.136 158.582 582.781 158.722L582.613 158.792V162.46C583.033 162.516 583.374 162.544 583.635 162.544C584.176 162.544 584.545 162.385 584.741 162.068C584.946 161.751 585.049 161.209 585.049 160.444C585.049 159.156 584.643 158.512 583.831 158.512ZM590.228 164H588.352V154.2H590.228V157.336C590.872 157 591.451 156.832 591.964 156.832C592.898 156.832 593.542 157.107 593.896 157.658C594.251 158.209 594.428 159.058 594.428 160.206V164H592.552V160.248C592.552 159.66 592.482 159.226 592.342 158.946C592.202 158.657 591.922 158.512 591.502 158.512C591.138 158.512 590.774 158.568 590.41 158.68L590.228 158.736V164ZM596.469 157.798C596.963 157.154 597.789 156.832 598.947 156.832C600.104 156.832 600.93 157.154 601.425 157.798C601.919 158.433 602.167 159.329 602.167 160.486C602.167 162.941 601.093 164.168 598.947 164.168C596.8 164.168 595.727 162.941 595.727 160.486C595.727 159.329 595.974 158.433 596.469 157.798ZM597.911 162.068C598.107 162.404 598.452 162.572 598.947 162.572C599.441 162.572 599.782 162.404 599.969 162.068C600.165 161.732 600.263 161.205 600.263 160.486C600.263 159.767 600.165 159.245 599.969 158.918C599.782 158.591 599.441 158.428 598.947 158.428C598.452 158.428 598.107 158.591 597.911 158.918C597.724 159.245 597.631 159.767 597.631 160.486C597.631 161.205 597.724 161.732 597.911 162.068ZM605.418 164H603.542V157H605.404V157.392C606.038 157.019 606.622 156.832 607.154 156.832C608.087 156.832 608.731 157.107 609.086 157.658C609.44 158.209 609.618 159.058 609.618 160.206V164H607.742V160.262C607.742 159.665 607.672 159.226 607.532 158.946C607.392 158.657 607.112 158.512 606.692 158.512C606.309 158.512 605.94 158.577 605.586 158.708L605.418 158.764V164ZM612.82 161.298C612.829 161.727 612.941 162.04 613.156 162.236C613.38 162.423 613.697 162.516 614.108 162.516C614.976 162.516 615.751 162.488 616.432 162.432L616.824 162.39L616.852 163.776C615.779 164.037 614.808 164.168 613.94 164.168C612.885 164.168 612.12 163.888 611.644 163.328C611.168 162.768 610.93 161.858 610.93 160.598C610.93 158.087 611.961 156.832 614.024 156.832C616.059 156.832 617.076 157.887 617.076 159.996L616.936 161.298H612.82ZM615.228 159.87C615.228 159.31 615.139 158.923 614.962 158.708C614.785 158.484 614.472 158.372 614.024 158.372C613.585 158.372 613.273 158.489 613.086 158.722C612.909 158.946 612.815 159.329 612.806 159.87H615.228ZM618.123 157.924L618.781 154.466H620.755L619.551 157.924H618.123ZM620.699 157.924L621.357 154.466H623.331L622.141 157.924H620.699Z" fill="#5F6FFF"/>
<g filter="url(#filter2_d)">
<rect x="344.286" y="1.22446" width="142" height="181" rx="10" fill="white"/>
<rect x="345.786" y="2.72446" width="139" height="178" rx="8.5" stroke="url(#paint4_radial)" stroke-width="3" stroke-linejoin="round"/>
</g>
<path d="M386.838 77.2245H359.446V69.7365L368.47 60.5845C371.67 57.2991 373.889 54.7818 375.126 53.0325C376.406 51.2831 377.046 49.4271 377.046 47.4645C377.046 45.4591 376.513 44.0511 375.446 43.2405C374.422 42.4298 372.95 42.0245 371.03 42.0245C368.171 42.0245 365.057 42.2805 361.686 42.7925L360.15 42.9845L359.702 36.1365C363.883 34.8565 368.214 34.2165 372.694 34.2165C381.654 34.2165 386.134 38.2485 386.134 46.3125C386.134 49.4698 385.451 52.2005 384.086 54.5045C382.721 56.8085 380.246 59.6031 376.662 62.8885L369.302 69.5445H386.838V77.2245ZM394.683 77.2245V66.6005H403.899V77.2245H394.683ZM438.834 34.9845V42.6645H419.954L418.866 51.8165C421.511 50.7925 424.028 50.2805 426.418 50.2805C435.548 50.2805 440.114 54.5258 440.114 63.0165C440.114 67.7951 438.855 71.4858 436.338 74.0885C433.82 76.6911 430.258 77.9925 425.65 77.9925C423.687 77.9925 421.447 77.8005 418.93 77.4165C416.455 77.0325 414.471 76.6271 412.978 76.2005L410.674 75.6245L411.634 69.0965C416.796 69.9071 421.106 70.3125 424.562 70.3125C426.652 70.3125 428.252 69.7578 429.362 68.6485C430.471 67.5391 431.026 65.9605 431.026 63.9125C431.026 61.8218 430.556 60.3071 429.618 59.3685C428.679 58.4298 427.356 57.9605 425.65 57.9605C422.791 57.9605 420.274 58.2378 418.098 58.7925L417.138 59.0485L411.89 57.8325L413.042 34.9845H438.834ZM451.286 77.7365L466.326 32.4885L470.998 34.1525L455.958 79.2725L451.286 77.7365ZM444.182 43.5605C444.182 37.3311 446.742 34.2165 451.862 34.2165C456.982 34.2165 459.542 37.3311 459.542 43.5605C459.542 49.7471 456.982 52.8405 451.862 52.8405C446.742 52.8405 444.182 49.7471 444.182 43.5605ZM450.71 40.2965C450.539 40.8938 450.454 41.9605 450.454 43.4965C450.454 45.0325 450.539 46.1205 450.71 46.7605C450.923 47.4005 451.307 47.7205 451.862 47.7205C452.417 47.7205 452.779 47.4005 452.95 46.7605C453.163 46.1205 453.27 45.0325 453.27 43.4965C453.27 41.9605 453.163 40.8938 452.95 40.2965C452.779 39.6565 452.417 39.3365 451.862 39.3365C451.307 39.3365 450.923 39.6565 450.71 40.2965ZM462.87 68.7125C462.87 62.4831 465.43 59.3685 470.55 59.3685C475.67 59.3685 478.23 62.4831 478.23 68.7125C478.23 74.8991 475.67 77.9925 470.55 77.9925C465.43 77.9925 462.87 74.8991 462.87 68.7125ZM469.398 65.4485C469.227 66.0458 469.142 67.1125 469.142 68.6485C469.142 70.1845 469.227 71.2725 469.398 71.9125C469.611 72.5525 469.995 72.8725 470.55 72.8725C471.105 72.8725 471.467 72.5525 471.638 71.9125C471.851 71.2725 471.958 70.1845 471.958 68.6485C471.958 67.1125 471.851 66.0458 471.638 65.4485C471.467 64.8085 471.105 64.4885 470.55 64.4885C469.995 64.4885 469.611 64.8085 469.398 65.4485Z" fill="url(#paint5_linear)"/>
<path d="M366.036 112V102.48H367.968V112H366.036ZM371.75 112H369.874V105H371.736V105.392C372.371 105.019 372.954 104.832 373.486 104.832C374.419 104.832 375.063 105.107 375.418 105.658C375.773 106.209 375.95 107.058 375.95 108.206V112H374.074V108.262C374.074 107.665 374.004 107.226 373.864 106.946C373.724 106.657 373.444 106.512 373.024 106.512C372.641 106.512 372.273 106.577 371.918 106.708L371.75 106.764V112ZM380.23 104.832C380.715 104.832 381.336 104.907 382.092 105.056L382.47 105.14L382.414 106.624C381.677 106.549 381.131 106.512 380.776 106.512C380.132 106.512 379.703 106.652 379.488 106.932C379.283 107.203 379.18 107.721 379.18 108.486C379.18 109.251 379.283 109.779 379.488 110.068C379.703 110.348 380.137 110.488 380.79 110.488L382.414 110.376L382.47 111.874C381.471 112.07 380.711 112.168 380.188 112.168C379.152 112.168 378.405 111.879 377.948 111.3C377.5 110.712 377.276 109.774 377.276 108.486C377.276 107.198 377.509 106.269 377.976 105.7C378.443 105.121 379.194 104.832 380.23 104.832ZM383.86 112V105H385.722V105.742C386.506 105.275 387.253 104.972 387.962 104.832V106.722C387.206 106.881 386.558 107.044 386.016 107.212L385.736 107.31V112H383.86ZM390.609 109.298C390.619 109.727 390.731 110.04 390.945 110.236C391.169 110.423 391.487 110.516 391.897 110.516C392.765 110.516 393.54 110.488 394.221 110.432L394.613 110.39L394.641 111.776C393.568 112.037 392.597 112.168 391.729 112.168C390.675 112.168 389.909 111.888 389.433 111.328C388.957 110.768 388.719 109.858 388.719 108.598C388.719 106.087 389.751 104.832 391.813 104.832C393.848 104.832 394.865 105.887 394.865 107.996L394.725 109.298H390.609ZM393.017 107.87C393.017 107.31 392.929 106.923 392.751 106.708C392.574 106.484 392.261 106.372 391.813 106.372C391.375 106.372 391.062 106.489 390.875 106.722C390.698 106.946 390.605 107.329 390.595 107.87H393.017ZM401.568 107.184V110.096C401.587 110.32 401.624 110.479 401.68 110.572C401.736 110.656 401.853 110.717 402.03 110.754L401.974 112.168C401.498 112.168 401.115 112.135 400.826 112.07C400.546 112.005 400.261 111.874 399.972 111.678C399.3 112.005 398.614 112.168 397.914 112.168C396.467 112.168 395.744 111.403 395.744 109.872C395.744 109.125 395.945 108.598 396.346 108.29C396.747 107.973 397.363 107.786 398.194 107.73L399.692 107.618V107.184C399.692 106.895 399.627 106.699 399.496 106.596C399.365 106.484 399.155 106.428 398.866 106.428L396.234 106.54L396.178 105.238C397.177 104.967 398.124 104.832 399.02 104.832C399.925 104.832 400.574 105.019 400.966 105.392C401.367 105.765 401.568 106.363 401.568 107.184ZM398.418 109.032C397.895 109.079 397.634 109.359 397.634 109.872C397.634 110.385 397.863 110.642 398.32 110.642C398.675 110.642 399.062 110.586 399.482 110.474L399.692 110.418V108.92L398.418 109.032ZM408.382 106.75C407.225 106.601 406.413 106.526 405.946 106.526C405.489 106.526 405.19 106.568 405.05 106.652C404.92 106.736 404.854 106.871 404.854 107.058C404.854 107.235 404.943 107.361 405.12 107.436C405.307 107.501 405.774 107.604 406.52 107.744C407.276 107.875 407.813 108.094 408.13 108.402C408.448 108.71 408.606 109.209 408.606 109.9C408.606 111.412 407.668 112.168 405.792 112.168C405.176 112.168 404.43 112.084 403.552 111.916L403.104 111.832L403.16 110.264C404.318 110.413 405.12 110.488 405.568 110.488C406.026 110.488 406.334 110.446 406.492 110.362C406.66 110.269 406.744 110.133 406.744 109.956C406.744 109.779 406.656 109.648 406.478 109.564C406.31 109.48 405.862 109.377 405.134 109.256C404.416 109.135 403.879 108.929 403.524 108.64C403.17 108.351 402.992 107.837 402.992 107.1C402.992 106.353 403.244 105.793 403.748 105.42C404.252 105.037 404.901 104.846 405.694 104.846C406.245 104.846 406.996 104.935 407.948 105.112L408.41 105.196L408.382 106.75ZM411.5 109.298C411.509 109.727 411.621 110.04 411.836 110.236C412.06 110.423 412.377 110.516 412.788 110.516C413.656 110.516 414.43 110.488 415.112 110.432L415.504 110.39L415.532 111.776C414.458 112.037 413.488 112.168 412.62 112.168C411.565 112.168 410.8 111.888 410.324 111.328C409.848 110.768 409.61 109.858 409.61 108.598C409.61 106.087 410.641 104.832 412.704 104.832C414.738 104.832 415.756 105.887 415.756 107.996L415.616 109.298H411.5ZM413.908 107.87C413.908 107.31 413.819 106.923 413.642 106.708C413.464 106.484 413.152 106.372 412.704 106.372C412.265 106.372 411.952 106.489 411.766 106.722C411.588 106.946 411.495 107.329 411.486 107.87H413.908ZM420.173 112V105H422.049V112H420.173ZM420.173 104.104V102.2H422.049V104.104H420.173ZM425.658 112H423.782V105H425.644V105.392C426.279 105.019 426.862 104.832 427.394 104.832C428.327 104.832 428.971 105.107 429.326 105.658C429.681 106.209 429.858 107.058 429.858 108.206V112H427.982V108.262C427.982 107.665 427.912 107.226 427.772 106.946C427.632 106.657 427.352 106.512 426.932 106.512C426.549 106.512 426.181 106.577 425.826 106.708L425.658 106.764V112ZM439.623 106.75C438.465 106.601 437.653 106.526 437.187 106.526C436.729 106.526 436.431 106.568 436.291 106.652C436.16 106.736 436.095 106.871 436.095 107.058C436.095 107.235 436.183 107.361 436.361 107.436C436.547 107.501 437.014 107.604 437.761 107.744C438.517 107.875 439.053 108.094 439.371 108.402C439.688 108.71 439.847 109.209 439.847 109.9C439.847 111.412 438.909 112.168 437.033 112.168C436.417 112.168 435.67 112.084 434.793 111.916L434.345 111.832L434.401 110.264C435.558 110.413 436.361 110.488 436.809 110.488C437.266 110.488 437.574 110.446 437.733 110.362C437.901 110.269 437.985 110.133 437.985 109.956C437.985 109.779 437.896 109.648 437.719 109.564C437.551 109.48 437.103 109.377 436.375 109.256C435.656 109.135 435.119 108.929 434.765 108.64C434.41 108.351 434.233 107.837 434.233 107.1C434.233 106.353 434.485 105.793 434.989 105.42C435.493 105.037 436.141 104.846 436.935 104.846C437.485 104.846 438.237 104.935 439.189 105.112L439.651 105.196L439.623 106.75ZM446.562 107.184V110.096C446.581 110.32 446.618 110.479 446.674 110.572C446.73 110.656 446.847 110.717 447.024 110.754L446.968 112.168C446.492 112.168 446.109 112.135 445.82 112.07C445.54 112.005 445.255 111.874 444.966 111.678C444.294 112.005 443.608 112.168 442.908 112.168C441.461 112.168 440.738 111.403 440.738 109.872C440.738 109.125 440.939 108.598 441.34 108.29C441.741 107.973 442.357 107.786 443.188 107.73L444.686 107.618V107.184C444.686 106.895 444.621 106.699 444.49 106.596C444.359 106.484 444.149 106.428 443.86 106.428L441.228 106.54L441.172 105.238C442.171 104.967 443.118 104.832 444.014 104.832C444.919 104.832 445.568 105.019 445.96 105.392C446.361 105.765 446.562 106.363 446.562 107.184ZM443.412 109.032C442.889 109.079 442.628 109.359 442.628 109.872C442.628 110.385 442.857 110.642 443.314 110.642C443.669 110.642 444.056 110.586 444.476 110.474L444.686 110.418V108.92L443.412 109.032ZM448.434 112V102.2H450.31V112H448.434ZM453.664 109.298C453.673 109.727 453.785 110.04 454 110.236C454.224 110.423 454.541 110.516 454.952 110.516C455.82 110.516 456.595 110.488 457.276 110.432L457.668 110.39L457.696 111.776C456.623 112.037 455.652 112.168 454.784 112.168C453.729 112.168 452.964 111.888 452.488 111.328C452.012 110.768 451.774 109.858 451.774 108.598C451.774 106.087 452.805 104.832 454.868 104.832C456.903 104.832 457.92 105.887 457.92 107.996L457.78 109.298H453.664ZM456.072 107.87C456.072 107.31 455.983 106.923 455.806 106.708C455.629 106.484 455.316 106.372 454.868 106.372C454.429 106.372 454.117 106.489 453.93 106.722C453.753 106.946 453.659 107.329 453.65 107.87H456.072ZM464.287 106.75C463.129 106.601 462.317 106.526 461.851 106.526C461.393 106.526 461.095 106.568 460.955 106.652C460.824 106.736 460.759 106.871 460.759 107.058C460.759 107.235 460.847 107.361 461.025 107.436C461.211 107.501 461.678 107.604 462.425 107.744C463.181 107.875 463.717 108.094 464.035 108.402C464.352 108.71 464.511 109.209 464.511 109.9C464.511 111.412 463.573 112.168 461.697 112.168C461.081 112.168 460.334 112.084 459.457 111.916L459.009 111.832L459.065 110.264C460.222 110.413 461.025 110.488 461.473 110.488C461.93 110.488 462.238 110.446 462.397 110.362C462.565 110.269 462.649 110.133 462.649 109.956C462.649 109.779 462.56 109.648 462.383 109.564C462.215 109.48 461.767 109.377 461.039 109.256C460.32 109.135 459.783 108.929 459.429 108.64C459.074 108.351 458.897 107.837 458.897 107.1C458.897 106.353 459.149 105.793 459.653 105.42C460.157 105.037 460.805 104.846 461.599 104.846C462.149 104.846 462.901 104.935 463.853 105.112L464.315 105.196L464.287 106.75ZM365.868 135.94V126H367.73V126.378C368.337 126.014 368.869 125.832 369.326 125.832C370.269 125.832 370.964 126.117 371.412 126.686C371.86 127.246 372.084 128.203 372.084 129.556C372.084 130.909 371.837 131.852 371.342 132.384C370.847 132.907 370.035 133.168 368.906 133.168C368.598 133.168 368.267 133.14 367.912 133.084L367.744 133.056V135.94H365.868ZM368.962 127.512C368.617 127.512 368.267 127.582 367.912 127.722L367.744 127.792V131.46C368.164 131.516 368.505 131.544 368.766 131.544C369.307 131.544 369.676 131.385 369.872 131.068C370.077 130.751 370.18 130.209 370.18 129.444C370.18 128.156 369.774 127.512 368.962 127.512ZM375.023 130.298C375.033 130.727 375.145 131.04 375.359 131.236C375.583 131.423 375.901 131.516 376.311 131.516C377.179 131.516 377.954 131.488 378.635 131.432L379.027 131.39L379.055 132.776C377.982 133.037 377.011 133.168 376.143 133.168C375.089 133.168 374.323 132.888 373.847 132.328C373.371 131.768 373.133 130.858 373.133 129.598C373.133 127.087 374.165 125.832 376.227 125.832C378.262 125.832 379.279 126.887 379.279 128.996L379.139 130.298H375.023ZM377.431 128.87C377.431 128.31 377.343 127.923 377.165 127.708C376.988 127.484 376.675 127.372 376.227 127.372C375.789 127.372 375.476 127.489 375.289 127.722C375.112 127.946 375.019 128.329 375.009 128.87H377.431ZM380.62 133V126H382.482V126.742C383.266 126.275 384.013 125.972 384.722 125.832V127.722C383.966 127.881 383.317 128.044 382.776 128.212L382.496 128.31V133H380.62ZM394.939 133H388.947V131.362L390.921 129.36C391.621 128.641 392.106 128.091 392.377 127.708C392.657 127.325 392.797 126.919 392.797 126.49C392.797 126.051 392.68 125.743 392.447 125.566C392.223 125.389 391.901 125.3 391.481 125.3C390.856 125.3 390.174 125.356 389.437 125.468L389.101 125.51L389.003 124.012C389.918 123.732 390.865 123.592 391.845 123.592C393.805 123.592 394.785 124.474 394.785 126.238C394.785 126.929 394.636 127.526 394.337 128.03C394.038 128.534 393.497 129.145 392.713 129.864L391.103 131.32H394.939V133ZM397.103 124.74C397.71 123.975 398.606 123.592 399.791 123.592C400.976 123.592 401.868 123.975 402.465 124.74C403.072 125.505 403.375 126.737 403.375 128.436C403.375 130.125 403.076 131.339 402.479 132.076C401.882 132.804 400.986 133.168 399.791 133.168C398.596 133.168 397.7 132.804 397.103 132.076C396.506 131.339 396.207 130.125 396.207 128.436C396.207 126.737 396.506 125.505 397.103 124.74ZM401.387 128.394C401.387 127.237 401.266 126.429 401.023 125.972C400.78 125.505 400.37 125.272 399.791 125.272C399.222 125.272 398.811 125.505 398.559 125.972C398.316 126.439 398.195 127.246 398.195 128.394C398.195 129.542 398.321 130.345 398.573 130.802C398.825 131.259 399.236 131.488 399.805 131.488C400.374 131.488 400.78 131.259 401.023 130.802C401.266 130.345 401.387 129.542 401.387 128.394ZM404.937 124.74C405.544 123.975 406.44 123.592 407.625 123.592C408.81 123.592 409.702 123.975 410.299 124.74C410.906 125.505 411.209 126.737 411.209 128.436C411.209 130.125 410.91 131.339 410.313 132.076C409.716 132.804 408.82 133.168 407.625 133.168C406.43 133.168 405.534 132.804 404.937 132.076C404.34 131.339 404.041 130.125 404.041 128.436C404.041 126.737 404.34 125.505 404.937 124.74ZM409.221 128.394C409.221 127.237 409.1 126.429 408.857 125.972C408.614 125.505 408.204 125.272 407.625 125.272C407.056 125.272 406.645 125.505 406.393 125.972C406.15 126.439 406.029 127.246 406.029 128.394C406.029 129.542 406.155 130.345 406.407 130.802C406.659 131.259 407.07 131.488 407.639 131.488C408.208 131.488 408.614 131.259 408.857 130.802C409.1 130.345 409.221 129.542 409.221 128.394ZM412.771 124.74C413.378 123.975 414.274 123.592 415.459 123.592C416.644 123.592 417.536 123.975 418.133 124.74C418.74 125.505 419.043 126.737 419.043 128.436C419.043 130.125 418.744 131.339 418.147 132.076C417.55 132.804 416.654 133.168 415.459 133.168C414.264 133.168 413.368 132.804 412.771 132.076C412.174 131.339 411.875 130.125 411.875 128.436C411.875 126.737 412.174 125.505 412.771 124.74ZM417.055 128.394C417.055 127.237 416.934 126.429 416.691 125.972C416.448 125.505 416.038 125.272 415.459 125.272C414.89 125.272 414.479 125.505 414.227 125.972C413.984 126.439 413.863 127.246 413.863 128.394C413.863 129.542 413.989 130.345 414.241 130.802C414.493 131.259 414.904 131.488 415.473 131.488C416.042 131.488 416.448 131.259 416.691 130.802C416.934 130.345 417.055 129.542 417.055 128.394ZM425.935 125.832C426.421 125.832 427.041 125.907 427.797 126.056L428.175 126.14L428.119 127.624C427.382 127.549 426.836 127.512 426.481 127.512C425.837 127.512 425.408 127.652 425.193 127.932C424.988 128.203 424.885 128.721 424.885 129.486C424.885 130.251 424.988 130.779 425.193 131.068C425.408 131.348 425.842 131.488 426.495 131.488L428.119 131.376L428.175 132.874C427.177 133.07 426.416 133.168 425.893 133.168C424.857 133.168 424.111 132.879 423.653 132.3C423.205 131.712 422.981 130.774 422.981 129.486C422.981 128.198 423.215 127.269 423.681 126.7C424.148 126.121 424.899 125.832 425.935 125.832ZM434.927 128.184V131.096C434.946 131.32 434.983 131.479 435.039 131.572C435.095 131.656 435.212 131.717 435.389 131.754L435.333 133.168C434.857 133.168 434.475 133.135 434.185 133.07C433.905 133.005 433.621 132.874 433.331 132.678C432.659 133.005 431.973 133.168 431.273 133.168C429.827 133.168 429.103 132.403 429.103 130.872C429.103 130.125 429.304 129.598 429.705 129.29C430.107 128.973 430.723 128.786 431.553 128.73L433.051 128.618V128.184C433.051 127.895 432.986 127.699 432.855 127.596C432.725 127.484 432.515 127.428 432.225 127.428L429.593 127.54L429.537 126.238C430.536 125.967 431.483 125.832 432.379 125.832C433.285 125.832 433.933 126.019 434.325 126.392C434.727 126.765 434.927 127.363 434.927 128.184ZM431.777 130.032C431.255 130.079 430.993 130.359 430.993 130.872C430.993 131.385 431.222 131.642 431.679 131.642C432.034 131.642 432.421 131.586 432.841 131.474L433.051 131.418V129.92L431.777 130.032ZM436.716 133V126H438.578V126.742C439.362 126.275 440.108 125.972 440.818 125.832V127.722C440.062 127.881 439.413 128.044 438.872 128.212L438.592 128.31V133H436.716ZM447.875 123.2V133H446.013V132.706C445.359 133.014 444.795 133.168 444.319 133.168C443.301 133.168 442.592 132.874 442.191 132.286C441.789 131.698 441.589 130.769 441.589 129.5C441.589 128.221 441.827 127.293 442.303 126.714C442.788 126.126 443.516 125.832 444.487 125.832C444.785 125.832 445.201 125.879 445.733 125.972L445.999 126.028V123.2H447.875ZM445.803 131.32L445.999 131.278V127.596C445.485 127.503 445.028 127.456 444.627 127.456C443.871 127.456 443.493 128.128 443.493 129.472C443.493 130.2 443.577 130.718 443.745 131.026C443.913 131.334 444.188 131.488 444.571 131.488C444.963 131.488 445.373 131.432 445.803 131.32ZM454.634 127.75C453.477 127.601 452.665 127.526 452.198 127.526C451.741 127.526 451.442 127.568 451.302 127.652C451.172 127.736 451.106 127.871 451.106 128.058C451.106 128.235 451.195 128.361 451.372 128.436C451.559 128.501 452.026 128.604 452.772 128.744C453.528 128.875 454.065 129.094 454.382 129.402C454.7 129.71 454.858 130.209 454.858 130.9C454.858 132.412 453.92 133.168 452.044 133.168C451.428 133.168 450.682 133.084 449.804 132.916L449.356 132.832L449.412 131.264C450.57 131.413 451.372 131.488 451.82 131.488C452.278 131.488 452.586 131.446 452.744 131.362C452.912 131.269 452.996 131.133 452.996 130.956C452.996 130.779 452.908 130.648 452.73 130.564C452.562 130.48 452.114 130.377 451.386 130.256C450.668 130.135 450.131 129.929 449.776 129.64C449.422 129.351 449.244 128.837 449.244 128.1C449.244 127.353 449.496 126.793 450 126.42C450.504 126.037 451.153 125.846 451.946 125.846C452.497 125.846 453.248 125.935 454.2 126.112L454.662 126.196L454.634 127.75ZM370.894 148.75C369.737 148.601 368.925 148.526 368.458 148.526C368.001 148.526 367.702 148.568 367.562 148.652C367.431 148.736 367.366 148.871 367.366 149.058C367.366 149.235 367.455 149.361 367.632 149.436C367.819 149.501 368.285 149.604 369.032 149.744C369.788 149.875 370.325 150.094 370.642 150.402C370.959 150.71 371.118 151.209 371.118 151.9C371.118 153.412 370.18 154.168 368.304 154.168C367.688 154.168 366.941 154.084 366.064 153.916L365.616 153.832L365.672 152.264C366.829 152.413 367.632 152.488 368.08 152.488C368.537 152.488 368.845 152.446 369.004 152.362C369.172 152.269 369.256 152.133 369.256 151.956C369.256 151.779 369.167 151.648 368.99 151.564C368.822 151.48 368.374 151.377 367.646 151.256C366.927 151.135 366.391 150.929 366.036 150.64C365.681 150.351 365.504 149.837 365.504 149.1C365.504 148.353 365.756 147.793 366.26 147.42C366.764 147.037 367.413 146.846 368.206 146.846C368.757 146.846 369.508 146.935 370.46 147.112L370.922 147.196L370.894 148.75ZM374.348 154H372.472V144.2H374.348V147.336C374.992 147 375.57 146.832 376.084 146.832C377.017 146.832 377.661 147.107 378.016 147.658C378.37 148.209 378.548 149.058 378.548 150.206V154H376.672V150.248C376.672 149.66 376.602 149.226 376.462 148.946C376.322 148.657 376.042 148.512 375.622 148.512C375.258 148.512 374.894 148.568 374.53 148.68L374.348 148.736V154ZM385.572 149.184V152.096C385.59 152.32 385.628 152.479 385.684 152.572C385.74 152.656 385.856 152.717 386.034 152.754L385.978 154.168C385.502 154.168 385.119 154.135 384.83 154.07C384.55 154.005 384.265 153.874 383.976 153.678C383.304 154.005 382.618 154.168 381.918 154.168C380.471 154.168 379.748 153.403 379.748 151.872C379.748 151.125 379.948 150.598 380.35 150.29C380.751 149.973 381.367 149.786 382.198 149.73L383.696 149.618V149.184C383.696 148.895 383.63 148.699 383.5 148.596C383.369 148.484 383.159 148.428 382.87 148.428L380.238 148.54L380.182 147.238C381.18 146.967 382.128 146.832 383.024 146.832C383.929 146.832 384.578 147.019 384.97 147.392C385.371 147.765 385.572 148.363 385.572 149.184ZM382.422 151.032C381.899 151.079 381.638 151.359 381.638 151.872C381.638 152.385 381.866 152.642 382.324 152.642C382.678 152.642 383.066 152.586 383.486 152.474L383.696 152.418V150.92L382.422 151.032ZM387.36 154V147H389.222V147.742C390.006 147.275 390.753 146.972 391.462 146.832V148.722C390.706 148.881 390.058 149.044 389.516 149.212L389.236 149.31V154H387.36ZM394.109 151.298C394.119 151.727 394.231 152.04 394.445 152.236C394.669 152.423 394.987 152.516 395.397 152.516C396.265 152.516 397.04 152.488 397.721 152.432L398.113 152.39L398.141 153.776C397.068 154.037 396.097 154.168 395.229 154.168C394.175 154.168 393.409 153.888 392.933 153.328C392.457 152.768 392.219 151.858 392.219 150.598C392.219 148.087 393.251 146.832 395.313 146.832C397.348 146.832 398.365 147.887 398.365 149.996L398.225 151.298H394.109ZM396.517 149.87C396.517 149.31 396.429 148.923 396.251 148.708C396.074 148.484 395.761 148.372 395.313 148.372C394.875 148.372 394.562 148.489 394.375 148.722C394.198 148.946 394.105 149.329 394.095 149.87H396.517ZM405.656 144.2V154H403.794V153.706C403.141 154.014 402.576 154.168 402.1 154.168C401.083 154.168 400.373 153.874 399.972 153.286C399.571 152.698 399.37 151.769 399.37 150.5C399.37 149.221 399.608 148.293 400.084 147.714C400.569 147.126 401.297 146.832 402.268 146.832C402.567 146.832 402.982 146.879 403.514 146.972L403.78 147.028V144.2H405.656ZM403.584 152.32L403.78 152.278V148.596C403.267 148.503 402.809 148.456 402.408 148.456C401.652 148.456 401.274 149.128 401.274 150.472C401.274 151.2 401.358 151.718 401.526 152.026C401.694 152.334 401.969 152.488 402.352 152.488C402.744 152.488 403.155 152.432 403.584 152.32Z" fill="#5F6FFF"/>
<g filter="url(#filter3_d)">
<rect x="174.286" y="1.22446" width="142" height="181" rx="10" fill="white"/>
<rect x="175.786" y="2.72446" width="139" height="178" rx="8.5" stroke="url(#paint6_radial)" stroke-width="3" stroke-linejoin="round"/>
</g>
<path d="M197.656 37.064C200.429 35.016 204.141 33.992 208.792 33.992C213.443 33.992 217.197 35.016 220.056 37.064C222.915 39.112 224.344 41.9493 224.344 45.576C224.344 48.0507 224.045 49.9067 223.448 51.144C222.851 52.3813 221.613 53.7467 219.736 55.24C221.613 56.8187 222.957 58.312 223.768 59.72C224.579 61.128 224.984 63.0693 224.984 65.544C224.984 69.7253 223.491 72.8187 220.504 74.824C217.517 76.7867 213.613 77.768 208.792 77.768C198.125 77.768 192.792 73.928 192.792 66.248C192.792 63.5173 193.197 61.4053 194.008 59.912C194.861 58.376 196.227 56.8187 198.104 55.24C196.312 53.7893 195.096 52.3813 194.456 51.016C193.816 49.608 193.496 47.7733 193.496 45.512C193.496 41.8853 194.883 39.0693 197.656 37.064ZM202.264 64.2C202.264 67.9547 204.461 69.832 208.856 69.832C213.293 69.832 215.512 67.9547 215.512 64.2C215.512 61.9813 214.253 60.3813 211.736 59.4H206.104C203.544 60.3813 202.264 61.9813 202.264 64.2ZM208.92 41.928C207 41.928 205.528 42.3547 204.504 43.208C203.48 44.0613 202.968 45.3627 202.968 47.112C202.968 48.8613 204.013 50.4613 206.104 51.912H211.736C213.827 50.4613 214.872 48.7973 214.872 46.92C214.872 43.592 212.888 41.928 208.92 41.928ZM233.469 37.064C236.242 35.016 239.954 33.992 244.605 33.992C249.255 33.992 253.01 35.016 255.869 37.064C258.727 39.112 260.157 41.9493 260.157 45.576C260.157 48.0507 259.858 49.9067 259.261 51.144C258.663 52.3813 257.426 53.7467 255.549 55.24C257.426 56.8187 258.77 58.312 259.581 59.72C260.391 61.128 260.797 63.0693 260.797 65.544C260.797 69.7253 259.303 72.8187 256.317 74.824C253.33 76.7867 249.426 77.768 244.605 77.768C233.938 77.768 228.605 73.928 228.605 66.248C228.605 63.5173 229.01 61.4053 229.821 59.912C230.674 58.376 232.039 56.8187 233.917 55.24C232.125 53.7893 230.909 52.3813 230.269 51.016C229.629 49.608 229.309 47.7733 229.309 45.512C229.309 41.8853 230.695 39.0693 233.469 37.064ZM238.077 64.2C238.077 67.9547 240.274 69.832 244.669 69.832C249.106 69.832 251.325 67.9547 251.325 64.2C251.325 61.9813 250.066 60.3813 247.549 59.4H241.917C239.357 60.3813 238.077 61.9813 238.077 64.2ZM244.733 41.928C242.813 41.928 241.341 42.3547 240.317 43.208C239.293 44.0613 238.781 45.3627 238.781 47.112C238.781 48.8613 239.826 50.4613 241.917 51.912H247.549C249.639 50.4613 250.685 48.7973 250.685 46.92C250.685 43.592 248.701 41.928 244.733 41.928ZM270.625 77.512L285.665 32.264L290.337 33.928L275.297 79.048L270.625 77.512ZM263.521 43.336C263.521 37.1067 266.081 33.992 271.201 33.992C276.321 33.992 278.881 37.1067 278.881 43.336C278.881 49.5227 276.321 52.616 271.201 52.616C266.081 52.616 263.521 49.5227 263.521 43.336ZM270.049 40.072C269.878 40.6693 269.793 41.736 269.793 43.272C269.793 44.808 269.878 45.896 270.049 46.536C270.262 47.176 270.646 47.496 271.201 47.496C271.756 47.496 272.118 47.176 272.289 46.536C272.502 45.896 272.609 44.808 272.609 43.272C272.609 41.736 272.502 40.6693 272.289 40.072C272.118 39.432 271.756 39.112 271.201 39.112C270.646 39.112 270.262 39.432 270.049 40.072ZM282.209 68.488C282.209 62.2587 284.769 59.144 289.889 59.144C295.009 59.144 297.569 62.2587 297.569 68.488C297.569 74.6747 295.009 77.768 289.889 77.768C284.769 77.768 282.209 74.6747 282.209 68.488ZM288.737 65.224C288.566 65.8213 288.481 66.888 288.481 68.424C288.481 69.96 288.566 71.048 288.737 71.688C288.95 72.328 289.334 72.648 289.889 72.648C290.444 72.648 290.806 72.328 290.977 71.688C291.19 71.048 291.297 69.96 291.297 68.424C291.297 66.888 291.19 65.8213 290.977 65.224C290.806 64.584 290.444 64.264 289.889 64.264C289.334 64.264 288.95 64.584 288.737 65.224Z" fill="url(#paint7_linear)"/>
<path d="M198.01 109.76C198.29 110.245 198.808 110.488 199.564 110.488C200.32 110.488 200.833 110.245 201.104 109.76C201.384 109.265 201.524 108.444 201.524 107.296C201.524 106.139 201.384 105.299 201.104 104.776C200.824 104.253 200.311 103.992 199.564 103.992C198.817 103.992 198.304 104.253 198.024 104.776C197.744 105.299 197.604 106.139 197.604 107.296C197.604 108.444 197.739 109.265 198.01 109.76ZM202.616 110.992C202.028 111.776 201.011 112.168 199.564 112.168C198.117 112.168 197.095 111.776 196.498 110.992C195.91 110.199 195.616 108.962 195.616 107.282C195.616 105.602 195.91 104.356 196.498 103.544C197.095 102.723 198.117 102.312 199.564 102.312C201.011 102.312 202.028 102.723 202.616 103.544C203.213 104.356 203.512 105.602 203.512 107.282C203.512 108.962 203.213 110.199 202.616 110.992ZM207.213 106.596V112H205.337V106.596H204.581V105H205.337V104.692C205.337 103.684 205.486 102.989 205.785 102.606C206.083 102.223 206.615 102.032 207.381 102.032C207.717 102.032 208.151 102.079 208.683 102.172L208.977 102.214L208.949 103.74C208.538 103.721 208.193 103.712 207.913 103.712C207.633 103.712 207.446 103.787 207.353 103.936C207.259 104.085 207.213 104.342 207.213 104.706V105H208.907V106.596H207.213ZM213.081 114.94V105H214.943V105.378C215.55 105.014 216.082 104.832 216.539 104.832C217.482 104.832 218.177 105.117 218.625 105.686C219.073 106.246 219.297 107.203 219.297 108.556C219.297 109.909 219.05 110.852 218.555 111.384C218.06 111.907 217.248 112.168 216.119 112.168C215.811 112.168 215.48 112.14 215.125 112.084L214.957 112.056V114.94H213.081ZM216.175 106.512C215.83 106.512 215.48 106.582 215.125 106.722L214.957 106.792V110.46C215.377 110.516 215.718 110.544 215.979 110.544C216.52 110.544 216.889 110.385 217.085 110.068C217.29 109.751 217.393 109.209 217.393 108.444C217.393 107.156 216.987 106.512 216.175 106.512ZM226.058 107.184V110.096C226.077 110.32 226.114 110.479 226.17 110.572C226.226 110.656 226.343 110.717 226.52 110.754L226.464 112.168C225.988 112.168 225.605 112.135 225.316 112.07C225.036 112.005 224.751 111.874 224.462 111.678C223.79 112.005 223.104 112.168 222.404 112.168C220.957 112.168 220.234 111.403 220.234 109.872C220.234 109.125 220.435 108.598 220.836 108.29C221.237 107.973 221.853 107.786 222.684 107.73L224.182 107.618V107.184C224.182 106.895 224.117 106.699 223.986 106.596C223.855 106.484 223.645 106.428 223.356 106.428L220.724 106.54L220.668 105.238C221.667 104.967 222.614 104.832 223.51 104.832C224.415 104.832 225.064 105.019 225.456 105.392C225.857 105.765 226.058 106.363 226.058 107.184ZM222.908 109.032C222.385 109.079 222.124 109.359 222.124 109.872C222.124 110.385 222.353 110.642 222.81 110.642C223.165 110.642 223.552 110.586 223.972 110.474L224.182 110.418V108.92L222.908 109.032ZM227.847 114.94V105H229.709V105.378C230.315 105.014 230.847 104.832 231.305 104.832C232.247 104.832 232.943 105.117 233.391 105.686C233.839 106.246 234.063 107.203 234.063 108.556C234.063 109.909 233.815 110.852 233.321 111.384C232.826 111.907 232.014 112.168 230.885 112.168C230.577 112.168 230.245 112.14 229.891 112.084L229.723 112.056V114.94H227.847ZM230.941 106.512C230.595 106.512 230.245 106.582 229.891 106.722L229.723 106.792V110.46C230.143 110.516 230.483 110.544 230.745 110.544C231.286 110.544 231.655 110.385 231.851 110.068C232.056 109.751 232.159 109.209 232.159 108.444C232.159 107.156 231.753 106.512 230.941 106.512ZM237.002 109.298C237.011 109.727 237.123 110.04 237.338 110.236C237.562 110.423 237.879 110.516 238.29 110.516C239.158 110.516 239.932 110.488 240.614 110.432L241.006 110.39L241.034 111.776C239.96 112.037 238.99 112.168 238.122 112.168C237.067 112.168 236.302 111.888 235.826 111.328C235.35 110.768 235.112 109.858 235.112 108.598C235.112 106.087 236.143 104.832 238.206 104.832C240.24 104.832 241.258 105.887 241.258 107.996L241.118 109.298H237.002ZM239.41 107.87C239.41 107.31 239.321 106.923 239.144 106.708C238.966 106.484 238.654 106.372 238.206 106.372C237.767 106.372 237.454 106.489 237.268 106.722C237.09 106.946 236.997 107.329 236.988 107.87H239.41ZM242.598 112V105H244.46V105.742C245.244 105.275 245.991 104.972 246.7 104.832V106.722C245.944 106.881 245.296 107.044 244.754 107.212L244.474 107.31V112H242.598ZM253.502 104.832C253.987 104.832 254.608 104.907 255.364 105.056L255.742 105.14L255.686 106.624C254.948 106.549 254.402 106.512 254.048 106.512C253.404 106.512 252.974 106.652 252.76 106.932C252.554 107.203 252.452 107.721 252.452 108.486C252.452 109.251 252.554 109.779 252.76 110.068C252.974 110.348 253.408 110.488 254.062 110.488L255.686 110.376L255.742 111.874C254.743 112.07 253.982 112.168 253.46 112.168C252.424 112.168 251.677 111.879 251.22 111.3C250.772 110.712 250.548 109.774 250.548 108.486C250.548 107.198 250.781 106.269 251.248 105.7C251.714 105.121 252.466 104.832 253.502 104.832ZM262.494 107.184V110.096C262.512 110.32 262.55 110.479 262.606 110.572C262.662 110.656 262.778 110.717 262.956 110.754L262.9 112.168C262.424 112.168 262.041 112.135 261.752 112.07C261.472 112.005 261.187 111.874 260.898 111.678C260.226 112.005 259.54 112.168 258.84 112.168C257.393 112.168 256.67 111.403 256.67 109.872C256.67 109.125 256.87 108.598 257.272 108.29C257.673 107.973 258.289 107.786 259.12 107.73L260.618 107.618V107.184C260.618 106.895 260.552 106.699 260.422 106.596C260.291 106.484 260.081 106.428 259.792 106.428L257.16 106.54L257.104 105.238C258.102 104.967 259.05 104.832 259.946 104.832C260.851 104.832 261.5 105.019 261.892 105.392C262.293 105.765 262.494 106.363 262.494 107.184ZM259.344 109.032C258.821 109.079 258.56 109.359 258.56 109.872C258.56 110.385 258.788 110.642 259.246 110.642C259.6 110.642 259.988 110.586 260.408 110.474L260.618 110.418V108.92L259.344 109.032ZM264.282 112V105H266.144V105.742C266.928 105.275 267.675 104.972 268.384 104.832V106.722C267.628 106.881 266.979 107.044 266.438 107.212L266.158 107.31V112H264.282ZM275.441 102.2V112H273.579V111.706C272.926 112.014 272.361 112.168 271.885 112.168C270.868 112.168 270.158 111.874 269.757 111.286C269.356 110.698 269.155 109.769 269.155 108.5C269.155 107.221 269.393 106.293 269.869 105.714C270.354 105.126 271.082 104.832 272.053 104.832C272.352 104.832 272.767 104.879 273.299 104.972L273.565 105.028V102.2H275.441ZM273.369 110.32L273.565 110.278V106.596C273.052 106.503 272.594 106.456 272.193 106.456C271.437 106.456 271.059 107.128 271.059 108.472C271.059 109.2 271.143 109.718 271.311 110.026C271.479 110.334 271.754 110.488 272.137 110.488C272.529 110.488 272.94 110.432 273.369 110.32ZM282.201 106.75C281.043 106.601 280.231 106.526 279.765 106.526C279.307 106.526 279.009 106.568 278.869 106.652C278.738 106.736 278.673 106.871 278.673 107.058C278.673 107.235 278.761 107.361 278.939 107.436C279.125 107.501 279.592 107.604 280.339 107.744C281.095 107.875 281.631 108.094 281.949 108.402C282.266 108.71 282.425 109.209 282.425 109.9C282.425 111.412 281.487 112.168 279.611 112.168C278.995 112.168 278.248 112.084 277.371 111.916L276.923 111.832L276.979 110.264C278.136 110.413 278.939 110.488 279.387 110.488C279.844 110.488 280.152 110.446 280.311 110.362C280.479 110.269 280.563 110.133 280.563 109.956C280.563 109.779 280.474 109.648 280.297 109.564C280.129 109.48 279.681 109.377 278.953 109.256C278.234 109.135 277.697 108.929 277.343 108.64C276.988 108.351 276.811 107.837 276.811 107.1C276.811 106.353 277.063 105.793 277.567 105.42C278.071 105.037 278.719 104.846 279.513 104.846C280.063 104.846 280.815 104.935 281.767 105.112L282.229 105.196L282.201 106.75ZM201.23 128.184V131.096C201.249 131.32 201.286 131.479 201.342 131.572C201.398 131.656 201.515 131.717 201.692 131.754L201.636 133.168C201.16 133.168 200.777 133.135 200.488 133.07C200.208 133.005 199.923 132.874 199.634 132.678C198.962 133.005 198.276 133.168 197.576 133.168C196.129 133.168 195.406 132.403 195.406 130.872C195.406 130.125 195.607 129.598 196.008 129.29C196.409 128.973 197.025 128.786 197.856 128.73L199.354 128.618V128.184C199.354 127.895 199.289 127.699 199.158 127.596C199.027 127.484 198.817 127.428 198.528 127.428L195.896 127.54L195.84 126.238C196.839 125.967 197.786 125.832 198.682 125.832C199.587 125.832 200.236 126.019 200.628 126.392C201.029 126.765 201.23 127.363 201.23 128.184ZM198.08 130.032C197.557 130.079 197.296 130.359 197.296 130.872C197.296 131.385 197.525 131.642 197.982 131.642C198.337 131.642 198.724 131.586 199.144 131.474L199.354 131.418V129.92L198.08 130.032ZM203.018 133V126H204.88V126.742C205.664 126.275 206.411 125.972 207.12 125.832V127.722C206.364 127.881 205.716 128.044 205.174 128.212L204.894 128.31V133H203.018ZM209.767 130.298C209.777 130.727 209.889 131.04 210.103 131.236C210.327 131.423 210.645 131.516 211.055 131.516C211.923 131.516 212.698 131.488 213.379 131.432L213.771 131.39L213.799 132.776C212.726 133.037 211.755 133.168 210.887 133.168C209.833 133.168 209.067 132.888 208.591 132.328C208.115 131.768 207.877 130.858 207.877 129.598C207.877 127.087 208.909 125.832 210.971 125.832C213.006 125.832 214.023 126.887 214.023 128.996L213.883 130.298H209.767ZM212.175 128.87C212.175 128.31 212.087 127.923 211.909 127.708C211.732 127.484 211.419 127.372 210.971 127.372C210.533 127.372 210.22 127.489 210.033 127.722C209.856 127.946 209.763 128.329 209.753 128.87H212.175ZM224.39 123.2V133H222.528V132.706C221.875 133.014 221.31 133.168 220.834 133.168C219.817 133.168 219.108 132.874 218.706 132.286C218.305 131.698 218.104 130.769 218.104 129.5C218.104 128.221 218.342 127.293 218.818 126.714C219.304 126.126 220.032 125.832 221.002 125.832C221.301 125.832 221.716 125.879 222.248 125.972L222.514 126.028V123.2H224.39ZM222.318 131.32L222.514 131.278V127.596C222.001 127.503 221.544 127.456 221.142 127.456C220.386 127.456 220.008 128.128 220.008 129.472C220.008 130.2 220.092 130.718 220.26 131.026C220.428 131.334 220.704 131.488 221.086 131.488C221.478 131.488 221.889 131.432 222.318 131.32ZM226.124 133V126H228V133H226.124ZM226.124 125.104V123.2H228V125.104H226.124ZM234.759 127.75C233.602 127.601 232.79 127.526 232.323 127.526C231.866 127.526 231.567 127.568 231.427 127.652C231.297 127.736 231.231 127.871 231.231 128.058C231.231 128.235 231.32 128.361 231.497 128.436C231.684 128.501 232.151 128.604 232.897 128.744C233.653 128.875 234.19 129.094 234.507 129.402C234.825 129.71 234.983 130.209 234.983 130.9C234.983 132.412 234.045 133.168 232.169 133.168C231.553 133.168 230.807 133.084 229.929 132.916L229.481 132.832L229.537 131.264C230.695 131.413 231.497 131.488 231.945 131.488C232.403 131.488 232.711 131.446 232.869 131.362C233.037 131.269 233.121 131.133 233.121 130.956C233.121 130.779 233.033 130.648 232.855 130.564C232.687 130.48 232.239 130.377 231.511 130.256C230.793 130.135 230.256 129.929 229.901 129.64C229.547 129.351 229.369 128.837 229.369 128.1C229.369 127.353 229.621 126.793 230.125 126.42C230.629 126.037 231.278 125.846 232.071 125.846C232.622 125.846 233.373 125.935 234.325 126.112L234.787 126.196L234.759 127.75ZM238.955 125.832C239.44 125.832 240.061 125.907 240.817 126.056L241.195 126.14L241.139 127.624C240.401 127.549 239.855 127.512 239.501 127.512C238.857 127.512 238.427 127.652 238.213 127.932C238.007 128.203 237.905 128.721 237.905 129.486C237.905 130.251 238.007 130.779 238.213 131.068C238.427 131.348 238.861 131.488 239.515 131.488L241.139 131.376L241.195 132.874C240.196 133.07 239.435 133.168 238.913 133.168C237.877 133.168 237.13 132.879 236.673 132.3C236.225 131.712 236.001 130.774 236.001 129.486C236.001 128.198 236.234 127.269 236.701 126.7C237.167 126.121 237.919 125.832 238.955 125.832ZM247.947 128.184V131.096C247.965 131.32 248.003 131.479 248.059 131.572C248.115 131.656 248.231 131.717 248.409 131.754L248.353 133.168C247.877 133.168 247.494 133.135 247.205 133.07C246.925 133.005 246.64 132.874 246.351 132.678C245.679 133.005 244.993 133.168 244.293 133.168C242.846 133.168 242.123 132.403 242.123 130.872C242.123 130.125 242.323 129.598 242.725 129.29C243.126 128.973 243.742 128.786 244.573 128.73L246.071 128.618V128.184C246.071 127.895 246.005 127.699 245.875 127.596C245.744 127.484 245.534 127.428 245.245 127.428L242.613 127.54L242.557 126.238C243.555 125.967 244.503 125.832 245.399 125.832C246.304 125.832 246.953 126.019 247.345 126.392C247.746 126.765 247.947 127.363 247.947 128.184ZM244.797 130.032C244.274 130.079 244.013 130.359 244.013 130.872C244.013 131.385 244.241 131.642 244.699 131.642C245.053 131.642 245.441 131.586 245.861 131.474L246.071 131.418V129.92L244.797 130.032ZM249.735 133V126H251.597V126.742C252.381 126.275 253.128 125.972 253.837 125.832V127.722C253.081 127.881 252.433 128.044 251.891 128.212L251.611 128.31V133H249.735ZM260.894 123.2V133H259.032V132.706C258.379 133.014 257.814 133.168 257.338 133.168C256.321 133.168 255.612 132.874 255.21 132.286C254.809 131.698 254.608 130.769 254.608 129.5C254.608 128.221 254.846 127.293 255.322 126.714C255.808 126.126 256.536 125.832 257.506 125.832C257.805 125.832 258.22 125.879 258.752 125.972L259.018 126.028V123.2H260.894ZM258.822 131.32L259.018 131.278V127.596C258.505 127.503 258.048 127.456 257.646 127.456C256.89 127.456 256.512 128.128 256.512 129.472C256.512 130.2 256.596 130.718 256.764 131.026C256.932 131.334 257.208 131.488 257.59 131.488C257.982 131.488 258.393 131.432 258.822 131.32ZM264.168 130.298C264.177 130.727 264.289 131.04 264.504 131.236C264.728 131.423 265.045 131.516 265.456 131.516C266.324 131.516 267.098 131.488 267.78 131.432L268.172 131.39L268.2 132.776C267.126 133.037 266.156 133.168 265.288 133.168C264.233 133.168 263.468 132.888 262.992 132.328C262.516 131.768 262.278 130.858 262.278 129.598C262.278 127.087 263.309 125.832 265.372 125.832C267.406 125.832 268.424 126.887 268.424 128.996L268.284 130.298H264.168ZM266.576 128.87C266.576 128.31 266.487 127.923 266.31 127.708C266.132 127.484 265.82 127.372 265.372 127.372C264.933 127.372 264.62 127.489 264.434 127.722C264.256 127.946 264.163 128.329 264.154 128.87H266.576ZM275.714 123.2V133H273.852V132.706C273.199 133.014 272.634 133.168 272.158 133.168C271.141 133.168 270.432 132.874 270.03 132.286C269.629 131.698 269.428 130.769 269.428 129.5C269.428 128.221 269.666 127.293 270.142 126.714C270.628 126.126 271.356 125.832 272.326 125.832C272.625 125.832 273.04 125.879 273.572 125.972L273.838 126.028V123.2H275.714ZM273.642 131.32L273.838 131.278V127.596C273.325 127.503 272.868 127.456 272.466 127.456C271.71 127.456 271.332 128.128 271.332 129.472C271.332 130.2 271.416 130.718 271.584 131.026C271.752 131.334 272.028 131.488 272.41 131.488C272.802 131.488 273.213 131.432 273.642 131.32ZM280.524 133V126H282.4V133H280.524ZM280.524 125.104V123.2H282.4V125.104H280.524ZM286.01 133H284.134V126H285.996V126.392C286.63 126.019 287.214 125.832 287.746 125.832C288.679 125.832 289.323 126.107 289.678 126.658C290.032 127.209 290.21 128.058 290.21 129.206V133H288.334V129.262C288.334 128.665 288.264 128.226 288.124 127.946C287.984 127.657 287.704 127.512 287.284 127.512C286.901 127.512 286.532 127.577 286.178 127.708L286.01 127.764V133ZM201.608 149.058L197.954 150.444L201.608 151.956V153.86L195.924 151.256V149.716L201.608 147.154V149.058ZM211.762 144.76V154H209.83V146.944L207.828 148.232L206.946 146.79L209.998 144.76H211.762ZM217.156 147H219.004L219.858 152.404H220.194L221.258 147.14H223.19L224.254 152.404H224.59L225.444 147H227.292L225.962 154H223.022L222.224 149.716L221.426 154H218.486L217.156 147ZM230.043 151.298C230.052 151.727 230.164 152.04 230.379 152.236C230.603 152.423 230.92 152.516 231.331 152.516C232.199 152.516 232.973 152.488 233.655 152.432L234.047 152.39L234.075 153.776C233.001 154.037 232.031 154.168 231.163 154.168C230.108 154.168 229.343 153.888 228.867 153.328C228.391 152.768 228.153 151.858 228.153 150.598C228.153 148.087 229.184 146.832 231.247 146.832C233.281 146.832 234.299 147.887 234.299 149.996L234.159 151.298H230.043ZM232.451 149.87C232.451 149.31 232.362 148.923 232.185 148.708C232.007 148.484 231.695 148.372 231.247 148.372C230.808 148.372 230.495 148.489 230.309 148.722C230.131 148.946 230.038 149.329 230.029 149.87H232.451ZM237.179 151.298C237.189 151.727 237.301 152.04 237.515 152.236C237.739 152.423 238.057 152.516 238.467 152.516C239.335 152.516 240.11 152.488 240.791 152.432L241.183 152.39L241.211 153.776C240.138 154.037 239.167 154.168 238.299 154.168C237.245 154.168 236.479 153.888 236.003 153.328C235.527 152.768 235.289 151.858 235.289 150.598C235.289 148.087 236.321 146.832 238.383 146.832C240.418 146.832 241.435 147.887 241.435 149.996L241.295 151.298H237.179ZM239.587 149.87C239.587 149.31 239.499 148.923 239.321 148.708C239.144 148.484 238.831 148.372 238.383 148.372C237.945 148.372 237.632 148.489 237.445 148.722C237.268 148.946 237.175 149.329 237.165 149.87H239.587ZM244.652 154H242.776V144.2H244.652V149.772L245.366 149.646L246.752 147H248.852L247.032 150.318L248.95 154H246.836L245.422 151.27L244.652 151.396V154Z" fill="#5F6FFF"/>
<defs>
<filter id="filter0_d" x="0" y="1" width="150" height="189" filterUnits="userSpaceOnUse" color-interpolation-filters="sRGB">
<feFlood flood-opacity="0" result="BackgroundImageFix"/>
<feColorMatrix in="SourceAlpha" type="matrix" values="0 0 0 0 0 0 0 0 0 0 0 0 0 0 0 0 0 0 127 0"/>
<feOffset dy="4"/>
<feGaussianBlur stdDeviation="2"/>
<feColorMatrix type="matrix" values="0 0 0 0 0 0 0 0 0 0 0 0 0 0 0 0 0 0 0.25 0"/>
<feBlend mode="normal" in2="BackgroundImageFix" result="effect1_dropShadow"/>
<feBlend mode="normal" in="SourceGraphic" in2="effect1_dropShadow" result="shape"/>
</filter>
<filter id="filter1_d" x="510.286" y="1.22446" width="150" height="189" filterUnits="userSpaceOnUse" color-interpolation-filters="sRGB">
<feFlood flood-opacity="0" result="BackgroundImageFix"/>
<feColorMatrix in="SourceAlpha" type="matrix" values="0 0 0 0 0 0 0 0 0 0 0 0 0 0 0 0 0 0 127 0"/>
<feOffset dy="4"/>
<feGaussianBlur stdDeviation="2"/>
<feColorMatrix type="matrix" values="0 0 0 0 0 0 0 0 0 0 0 0 0 0 0 0 0 0 0.25 0"/>
<feBlend mode="normal" in2="BackgroundImageFix" result="effect1_dropShadow"/>
<feBlend mode="normal" in="SourceGraphic" in2="effect1_dropShadow" result="shape"/>
</filter>
<filter id="filter2_d" x="340.286" y="1.22446" width="150" height="189" filterUnits="userSpaceOnUse" color-interpolation-filters="sRGB">
<feFlood flood-opacity="0" result="BackgroundImageFix"/>
<feColorMatrix in="SourceAlpha" type="matrix" values="0 0 0 0 0 0 0 0 0 0 0 0 0 0 0 0 0 0 127 0"/>
<feOffset dy="4"/>
<feGaussianBlur stdDeviation="2"/>
<feColorMatrix type="matrix" values="0 0 0 0 0 0 0 0 0 0 0 0 0 0 0 0 0 0 0.25 0"/>
<feBlend mode="normal" in2="BackgroundImageFix" result="effect1_dropShadow"/>
<feBlend mode="normal" in="SourceGraphic" in2="effect1_dropShadow" result="shape"/>
</filter>
<filter id="filter3_d" x="170.286" y="1.22446" width="150" height="189" filterUnits="userSpaceOnUse" color-interpolation-filters="sRGB">
<feFlood flood-opacity="0" result="BackgroundImageFix"/>
<feColorMatrix in="SourceAlpha" type="matrix" values="0 0 0 0 0 0 0 0 0 0 0 0 0 0 0 0 0 0 127 0"/>
<feOffset dy="4"/>
<feGaussianBlur stdDeviation="2"/>
<feColorMatrix type="matrix" values="0 0 0 0 0 0 0 0 0 0 0 0 0 0 0 0 0 0 0.25 0"/>
<feBlend mode="normal" in2="BackgroundImageFix" result="effect1_dropShadow"/>
<feBlend mode="normal" in="SourceGraphic" in2="effect1_dropShadow" result="shape"/>
</filter>
<radialGradient id="paint0_radial" cx="0" cy="0" r="1" gradientUnits="userSpaceOnUse" gradientTransform="translate(75 91.5) rotate(90) scale(90.5 71)">
<stop stop-color="#5F6FFF"/>
<stop offset="1" stop-color="#146BC9"/>
</radialGradient>
<linearGradient id="paint1_linear" x1="70.5" y1="5" x2="70.5" y2="102" gradientUnits="userSpaceOnUse">
<stop stop-color="#5F6FFF"/>
<stop offset="1" stop-color="#3179CD"/>
</linearGradient>
<radialGradient id="paint2_radial" cx="0" cy="0" r="1" gradientUnits="userSpaceOnUse" gradientTransform="translate(585.286 91.7245) rotate(90) scale(90.5 71)">
<stop stop-color="#5F6FFF"/>
<stop offset="1" stop-color="#146BC9"/>
</radialGradient>
<linearGradient id="paint3_linear" x1="585" y1="5" x2="585" y2="102" gradientUnits="userSpaceOnUse">
<stop stop-color="#5F6FFF"/>
<stop offset="1" stop-color="#3179CD"/>
</linearGradient>
<radialGradient id="paint4_radial" cx="0" cy="0" r="1" gradientUnits="userSpaceOnUse" gradientTransform="translate(415.286 91.7245) rotate(90) scale(90.5 71)">
<stop stop-color="#5F6FFF"/>
<stop offset="1" stop-color="#146BC9"/>
</radialGradient>
<linearGradient id="paint5_linear" x1="417.286" y1="5.22446" x2="417.286" y2="102.224" gradientUnits="userSpaceOnUse">
<stop stop-color="#5F6FFF"/>
<stop offset="1" stop-color="#3179CD"/>
</linearGradient>
<radialGradient id="paint6_radial" cx="0" cy="0" r="1" gradientUnits="userSpaceOnUse" gradientTransform="translate(245.286 91.7245) rotate(90) scale(90.5 71)">
<stop stop-color="#5F6FFF"/>
<stop offset="1" stop-color="#146BC9"/>
</radialGradient>
<linearGradient id="paint7_linear" x1="245" y1="5" x2="245" y2="102" gradientUnits="userSpaceOnUse">
<stop stop-color="#5F6FFF"/>
<stop offset="1" stop-color="#3179CD"/>
</linearGradient>
</defs>
</svg>
